<?xml version="1.0" encoding="utf-8"?>
<!-- Generator: Adobe Illustrator 18.1.1, SVG Export Plug-In . SVG Version: 6.00 Build 0)  -->
<svg version="1.1" id="Layer_1" xmlns="http://www.w3.org/2000/svg" xmlns:xlink="http://www.w3.org/1999/xlink" x="0px" y="0px"
	 width="103.1px" height="99.7px" viewBox="55.7 346.8 103.1 99.7" enable-background="new 55.7 346.8 103.1 99.7"
	 xml:space="preserve">
<g id="_x39_7Zx1c_1_">
	<g>
		<path fill="#3A569F" d="M153.3,446.5c-9.1,0-18.1,0-27.1,0c-1.2-0.9-1.3-2.3-1.4-3.7c-0.1-10.4-0.1-20.8,0-31.2
			c0.1-3.9,0.8-4.6,4.7-4.8c1.8-0.1,3.5,0,5.3-0.1c2.1,0,3.2-1,3.7-3.1c0.5-2.2,0.5-4.5,0.8-6.7c0.2-1.9-1-2.6-2.7-2.6
			c-2.4-0.1-4.9,0-7.4-0.1c-3.2-0.2-4.1-1.1-4.3-4.4c-0.1-3-0.2-6,0.4-9.1c0.7-3.3,2.5-5.1,5.7-5.9c2.1-0.5,4.1-0.5,6.2-0.5
			c2.3-0.1,3.5-1.1,3.5-3.4c0-0.2,0-0.4,0-0.6c0.2-6.3-0.2-6.7-6.4-6.7c-1.9,0-3.9-0.1-5.9-0.1c-9.3,0.5-15.7,6.9-16.1,16.3
			c-0.2,3.4,0,6.9-0.1,10.3c-0.2,3.2-0.9,3.9-4.1,4.1c-1.9,0.1-3.7,0-5.6,0.1c-2,0.1-3.1,1.1-3.1,3.1c0,0.4,0-0.1,0,0.3
			c-0.2,9.9-0.5,9.1,8.2,9.1c3.9,0,4.7,0.8,4.7,4.7c0.1,10.4,0.1,20.8,0,31.2c0,1.4-0.1,2.8-1.4,3.7c-16.5,0-33,0-49.5,0
			c-4.9-1.2-5.5-1.9-5.5-7.1c0-28.5,0-57,0-85.5c0-4.9,0.4-5.4,4.9-7c31.1,0,62.1,0,93.2,0c4.2,1.5,4.9,2.3,4.9,6.9
			c0.1,28.6,0.1,57.3,0,86C158.7,444.5,157.9,445.3,153.3,446.5z"/>
	</g>
</g>
</svg>
