<?xml version="1.0" encoding="utf-8"?>
<!-- Generator: Adobe Illustrator 18.1.1, SVG Export Plug-In . SVG Version: 6.00 Build 0)  -->
<svg version="1.1" id="Layer_1" xmlns="http://www.w3.org/2000/svg" xmlns:xlink="http://www.w3.org/1999/xlink" x="0px" y="0px"
	 width="103.1px" height="99.6px" viewBox="55.7 346.7 103.1 99.6" enable-background="new 55.7 346.7 103.1 99.6"
	 xml:space="preserve">
<g id="RcmiBr_1_">
	<g>
		<path fill="#FBFBFB" d="M70.8,443.3c-2.3,1.6-3.7-0.5-5-1.5c-5.4-4.3-8.6-9.9-9.4-16.9c-0.5-4.1-0.7-8.2-0.7-12.4
			c0-12-0.1-24,0.1-36c0.1-4.9,0.5-9.7,2.5-14.3c3.4-7.8,9.4-12.4,17.5-14.3c4.2-1,8.7-1.2,13-1.2c13.3,0,26.5-0.1,39.8,0.1
			c4.7,0.1,9.5,0.4,14,2.2c8.6,3.5,13.9,9.8,15.4,19.1c0.7,4.1,0.8,8.3,0.8,12.5c0,12.8,0.1,25.5-0.1,38.3
			c-0.1,4.4-0.5,8.9-2.2,13.1c-2.1,4.9-5.3,8.7-9.8,11.5c-1,0.6-1.7,0.2-2.6-0.1c0-1.1,0.9-1.6,1.7-2.1c7.3-4.8,10.6-11.9,10.6-20.5
			c0.1-15.8,0.1-31.7,0-47.5c-0.1-6.7-2.2-12.7-7.1-17.5c-0.7-0.7-1.4-1.2-2.4-1.5c-0.7-0.3-1.3-0.8-1.9-1.2c-2.4-2-5.1-3.1-8.4-3
			c-2.7,0.1-5.4-0.5-8.1-0.5c-14.2,0-28.3,0-42.4,0c-4,0-8,0.5-12,1.3c-3.2,0.6-5.8,2.6-8.1,5c-3.9,3.1-6,7.4-7,12.1
			c-0.6,2.7-0.8,5.4-0.8,8.2c0,14.6-0.1,29.3,0,43.9c0,5.5,1.3,10.7,4.7,15.2c1.6,2.1,3.6,4,5.8,5.6C69.5,441.5,70.7,442,70.8,443.3
			z"/>
		<path fill="#F8F8F8" d="M70.8,443.3c-3.4-2.8-7-5.3-9.3-9.1c-1.9-3.2-3.1-6.6-3.4-10.2c-0.9-10.1-0.2-20.2-0.4-30.3
			c-0.1-6.4-0.1-12.8,0-19.2c0.1-6,1.4-11.6,5.2-16.5c0.8-1,1.6-1.9,2.7-2.6c0.5,0.9-0.2,1.4-0.7,2c-3.9,4.3-5.8,9.4-6,15.2
			c-0.7,15.4-0.2,30.9-0.2,46.3c0,5.7,0.9,11.3,4.6,16c1.9,2.4,3.8,4.8,6.8,6c1,0.1,1.8,0.6,2.6,1c2.9,1.3,6,1.6,9,1.6
			c17,0,34,0,51.1,0c2,0,4-0.1,6-0.5c2.2-0.1,3.9-1.3,5.8-2c5.6-2.7,8.7-7.4,10.3-13.2c0.8-2.9,1.1-5.9,1.1-8.9
			c0.1-14.5,0.1-29,0-43.5c-0.1-7.9-1.9-15-8.4-20.3c-0.4-0.3-0.6-0.6-0.5-1.1c3.2,1.2,4.9,4,6.5,6.7c2.4,3.9,3.3,8.4,3.3,12.9
			c0,15.6,0,31.2,0,46.8c0,5.7-1.4,11-4.8,15.7c-1.6,2.1-3.4,3.9-5.6,5.3c-0.9,0.6-1.6,1.4-2.4,2c-1.1,0.4-2.3,0.8-3.4,1.1
			c-3.6,1.1-7.4,1.3-11.2,1.3c-5.5,0-10.9,0-16.4-0.2c-9.2-0.2-18.3,0.2-27.5,0.1c-4-0.1-7.9-0.1-11.7-1.3
			C72.8,444.1,71.8,443.7,70.8,443.3z"/>
		<path fill="#FBFBFB" d="M73.8,444.4c1.7,0.2,3.3-0.1,5.1,0.5c1.8,0.7,3.9,0.1,5.9,0.1c15.1,0.1,30.2,0,45.3,0.1
			c3.2,0,6.4-0.4,9.6-0.9c0.3,0,0.6,0.1,0.9,0.1c-1.1,1.3-2.7,1.2-4.1,1.5c-3.8,0.6-7.6,0.4-11.4,0.4c-7.3,0.1-14.5-0.7-21.8-0.4
			c-6.4,0.3-12.8,0.4-19.2,0.4c-2.8,0-5.5-0.4-8.2-0.8C75.1,445.4,74.2,445.3,73.8,444.4z"/>
		<path fill="#F2F1F1" d="M147,353.9c3.7,3.1,6.6,6.8,8.1,11.5c0.9,3.1,1.3,6.2,1.3,9.4c0.1,14.9,0.2,29.8,0,44.7
			c-0.1,7.5-1.9,14.4-7.9,19.5c-1.2,1.1-2.4,2.2-4.1,2.4c-0.2-0.6,0.3-0.9,0.6-1.3c0.7-0.8,1.7-1.4,2.6-2c0.8-0.5,1.4-1.2,1.9-2
			c0.8-1,1.5-2.1,2.2-3.2c2.4-3.7,3.2-7.9,3.2-12.2c0-15.8,0-31.6,0-47.3c0-6.4-2.1-11.9-6.5-16.4c-3.5-3.5-7.5-6-13-6.1
			c-17.7-0.5-35.3-0.1-53-0.2c-3.3,0-6.6,0.4-9.8,1.8c-4.6,2.3-7.8,6.1-10.5,10.4c-1.7,3.4-2.5,7.1-2.5,10.9c0,15.3,0,30.5,0,45.9
			c0,8,2.6,14.8,9.1,19.7c0.5,0.4,1.4,0.8,0.9,1.8c-1,0.4-1.6-0.5-2.2-1c-5.8-4.7-8.8-10.7-9.1-18.2c-0.8-15-0.2-30.1-0.3-45.2
			c0-4.7,0.5-9.4,2.5-13.7c1-2.1,2.2-4.1,3.8-5.8c0.5-0.6,1.2-0.9,1.2-1.8c1.9-1.6,3.7-3.2,6.1-4.3c2.8-1.3,5.8-1.5,8.8-1.6
			c16.4-1,32.9-0.3,49.3-0.4c2.9,0,6,0.1,8.9,0.5c2.3,0.2,4.8,1,6.5,3C145.6,353.1,146.3,353.6,147,353.9z"/>
		<path fill="#F0EFEF" d="M69.7,441c-0.2-0.9-1.1-1.3-1.8-1.8c-4.7-3.7-7.4-8.5-8.4-14.4c-0.4-2.2-0.3-4.5-0.3-6.7
			c0-15.2-0.1-30.4,0-45.6c0-3.6,0.7-7.3,3-10.4c0.6,0.6,0.5,1.2,0.2,1.9c-1.1,1.8-1.7,3.8-1.8,5.9c-0.2,2.1-0.5,4.2-0.5,6.4
			c0,13.4,0,26.8,0,40.1c0,3.2,0.2,6.4,0.8,9.5c0.7,3.5,2.3,6.7,4.8,9.4c3,3.3,6.6,5.8,11,6.8c3.4,1.1,6.8,0.7,10.2,0.5
			c2.2-0.1,4.5-0.3,6.7-0.3c9.1-0.1,18.1-0.1,27.1,0c3.6,0.1,7.1,0.4,10.7,0.5c2.2,0.1,4.5-0.1,6.7-0.7c0.7-0.2,1.3-0.2,1.9,0.1
			c0.6,1.2-0.8,0.5-1,1c-1.9,0.8-3.9,0.7-5.8,0.7c-13.2,0.1-26.4,0-39.5,0c-4.4,0-8.8,0.2-13.1,0C76.8,443.9,73,443.3,69.7,441z"/>
		<path fill="#F1F0F0" d="M139.1,443.3c0.4-0.2,0.8-0.5,1.1-0.8c1.4-1.3,3.1-1.9,4.9-2.3c0.1,0.6-0.5,0.8-0.8,1.1
			C142.7,442.2,141.1,443.4,139.1,443.3z"/>
		<path fill="#ECEBEB" d="M71.9,352.4c1.4-1.2,3.2-1.4,4.8-1.7c2.8-0.4,5.6-0.6,8.4-0.6c15.5,0.1,30.9,0,46.4,0.1
			c2.5,0,5.1,0,7.4,0.6c6.2,1.5,10.3,5.8,13.5,11.1c2.1,3.5,2.8,7.3,2.8,11.3c0,16,0.1,32.1,0,48.1c0,4-0.8,7.8-2.9,11.3
			c-0.2,0.4-0.4,0.8-0.9,1c-0.2-0.2-0.3-0.5-0.3-0.8c0.6-2.4,1.8-4.6,2.6-7c0.5-0.8,0.3-1.7,0.5-2.5c0.1-0.2,0.1-0.4,0.2-0.7
			c0.1-16.8,0-33.5,0-50.3c0-0.2-0.1-0.5-0.1-0.8c-0.5-0.9-0.5-1.9-0.7-2.9c-0.6-2.9-1.8-5.6-3.4-8.1c-2.5-3.8-5.8-6.7-10-8.5
			c-1.4-0.5-2.9-0.7-4.4-0.7c-17.7,0-35.4,0-53.2,0.1c-2.8,0-5.5,0.3-8.2,0.9C73.6,352.6,72.8,353,71.9,352.4z"/>
		<path fill="#E4E2E2" d="M71.9,352.4c6.5-1.8,13.2-1.5,19.8-1.5c14.9,0,29.8,0,44.7,0c1.6,0,3.2,0,4.6,1.1
			c-0.2,0.3-0.6,0.4-0.9,0.4c-3-0.6-6,0-9-0.5c-0.7-0.3-1.5-0.2-2.2-0.2c-14.4,0-28.8,0-43.2,0c-0.7,0-1.4-0.1-2,0.2
			c-0.9,0.2-1.8,0.1-2.7,0.2c-1.8-0.1-3.4,0.3-5.1,0.6c-0.8,0.5-1.8,0.5-2.7,0.8c-1,0.2-1.9,0.7-2.7,1.4c-2.7,2.3-5.4,4.6-6.8,8
			c-0.4,0.5-0.5,1.4-1.3,1.6c-0.1-0.1-0.2-0.2-0.1-0.3c0-0.1,0-0.1,0.1-0.1c0-0.6,0-1.2,0-1.9C64.6,358.1,67.7,354.7,71.9,352.4z"/>
		<path fill="#ECEBEA" d="M151.6,432.7c0,0.2,0,0.5,0,0.8c-0.2,1.2-1.3,2-1.9,3c-0.8,0.5-1.4,1.1-1.9,1.9c-0.9,0.6-1.8,1.2-2.6,1.9
			c-1.5,1-3.2,1.6-4.9,2.3c-0.6,0-1.2,0-1.9,0c0-0.1,0-0.2-0.1-0.3c0.3-0.6,0.8-0.8,1.4-0.9c4.3-1.1,7.5-3.9,10.2-7.2
			C150.3,433.6,150.5,432.6,151.6,432.7z"/>
		<path fill="#F1F0F0" d="M147.8,438.4c0.2-1,0.8-1.7,1.9-1.9C149.2,437.3,148.6,437.9,147.8,438.4z"/>
		<path fill="#E4E3E2" d="M62.1,364.1c0,0.1,0,0.2,0,0.4c0.3,0.9,0,1.7-0.3,2.5c-0.5,1.4-0.7,2.8-0.9,4.2c-0.3,1.1-0.1,2.3-0.2,3.5
			c0,15.1,0,30.2,0,45.3c0.1,1.2-0.1,2.4,0.2,3.6c0.3,2.2,0.8,4.3,1.8,6.3c0.2,0.2,0.3,0.5,0.4,0.7c2.9,5.2,7,9,12.7,10.9
			c0.5,0.1,0.9,0.2,1.1,0.8c0,0.3-0.1,0.6-0.5,0.5c-8.5-2.2-13.7-7.7-16-15.9c-0.7-2.6-1-5.3-1-8c0-14.4-0.1-28.9,0-43.3
			c0-3.4,0.3-6.8,1.6-9.9C61.3,364.9,61.2,364.1,62.1,364.1z"/>
		<path fill="#ECEBEA" d="M76.5,442.6c0.1-0.1,0.2-0.2,0.4-0.4s0.3-0.2,0.5-0.2c1.1,0.1,2.2,0.5,3.4,0.2c1.5-0.1,2.9,0,4.3-0.2
			c15-0.6,30-0.5,45,0c2.1,0,4.2,0,6.2,0c0.8,0,1.5-0.1,2.1,0.5l0,0c-2.4,1-4.9,0.9-7.5,0.8c-3.2-0.1-6.4-0.3-9.5-0.4
			c-9.2-0.2-18.3-0.1-27.5,0c-3.5,0-7.1,0.6-10.6,0.5C81,443.4,78.6,443.8,76.5,442.6z"/>
		<path fill="#E1DFDE" d="M138.3,442.6c-2.8,0-5.5,0-8.3,0c-1.8-0.4-3.6,0-5.4-0.2c-0.5-0.1-1.3,0.4-1.5-0.6c2.3-1,4.7-0.5,7-0.3
			c2.6,0.2,5.1,0.4,7.6-0.4c0.6-0.4,1.3-0.5,2-0.6c1.6-0.1,2.8-0.8,3.8-1.9c1.2-1.1,2.6-2.1,3.9-3.1c0.9-0.4,1.6-1,1.8-2
			c0.1-0.5,0.4-0.9,0.7-1.3c0.2-0.2,0.4-0.5,0.6-0.8c0.4-0.5,0.7-1.1,1.1-1.6c0.3-0.5,0.5-1.1,0.5-1.7c0-0.7,0.2-1.4,0.6-2
			c0.7-2.3,0.8-4.7,0.8-7.1c0.1-14.6,0.1-29.3,0-43.9c0-2.4-0.1-4.8-0.8-7c-0.4-0.6-0.6-1.4-0.6-2.1c-0.1-1.2-0.6-2.2-1.4-3.1
			c-0.4-0.5-0.8-1.1-0.8-1.8c0-0.3,0.1-0.6,0.4-0.8c2.2,2.7,3.2,5.8,3.8,9.2c0.1,0.5-0.1,1,0.4,1.4c0.3,0.5,0.2,1.1,0.2,1.6
			c0,16.4,0,32.8,0,49.2c0,0.5,0.2,1.1-0.2,1.6l0,0c-0.5,0.8,0.1,1.8-0.4,2.6c-0.9,2.3-1.8,4.5-2.6,6.8c-1.2,1-1.9,2.5-2.9,3.6
			c-2.7,2.7-5.5,4.9-9.3,5.6C138.9,442,138.7,442.3,138.3,442.6z"/>
		<path fill="#ECEBEA" d="M154.6,423.3c0-17.5,0-35,0-52.4c0.6,0.5,0.4,1.3,0.4,1.9c0,16.2,0,32.4,0,48.6
			C154.9,422,155.2,422.8,154.6,423.3z"/>
		<path fill="#DFDEDE" d="M150.4,360.3c0,0.2,0,0.5,0,0.8c-1.1,0.1-1.2-0.9-1.8-1.4c-1.8-2.6-4.2-4.5-7-6.1
			c-0.3-0.6-1.4-0.6-1.4-1.6c0.2,0,0.5,0,0.8,0C145.1,353.7,148.2,356.4,150.4,360.3z"/>
		<path fill="#ECEBEA" d="M154.2,426c0.2-0.9-0.3-1.9,0.4-2.7C154.4,424.2,154.9,425.2,154.2,426z"/>
		<path fill="#DFDEDE" d="M60.2,420.3c0-15.4,0-30.7,0-46c0.5-1.1-0.1-2.3,0.4-3.4c-0.2-2.3,0.9-4.3,1.5-6.4
			c0.5-0.4,0.3-1.3,1.1-1.5c0.4,0.4,0.4,0.9,0.3,1.4c-1.7,4.3-2.1,8.8-2.1,13.4c0.1,13.6,0.1,27.2,0,40.8c0,3.3,0.5,6.5,1.5,9.6
			c0.2,0.8,0.4,1.4-0.5,1.9c-1.1-2-1.9-4.1-1.9-6.4C60.1,422.6,60.7,421.4,60.2,420.3z"/>
		<path fill="#DEDCDC" d="M140.2,352c0.4,0.5,1.6,0.4,1.5,1.5c-0.1,0-0.2,0.1-0.2,0.2c-0.8,0.2-1.5-0.2-2.2-0.6
			c-1.4-0.8-3-0.4-4.5-0.5c-16.9,0.2-33.8,0-50.7,0.1c-1.1,0-2.3,0.2-3.3-0.4c-0.2-0.1-0.3-0.4-0.2-0.6c0.9,0,1.8,0,2.7,0
			c0.5-0.3,1-0.2,1.5-0.2c15,0,30,0,45,0c0.5,0,1-0.1,1.5,0.2C134.2,351.7,137.2,351.3,140.2,352z"/>
		<path fill="#DFDEDE" d="M131.2,351.6c-16,0-31.9,0-47.9,0c0.5-0.6,1.3-0.4,1.9-0.4c14.7,0,29.3,0,44,0
			C129.9,351.2,130.6,351,131.2,351.6z"/>
		<path fill="#D7D5D5" d="M63.2,364.1c0-0.4,0-0.8,0-1.1c0.3-2.1,1.7-3.6,3-5c1.1-1.2,2.5-2.2,3.8-3.3c0.8-0.6,1.9-0.9,2.7-1.5
			c0.9-0.2,1.8-0.5,2.7-0.8c0.5-0.2,1.1-0.4,1.6,0.1c0.1,0.3-0.1,0.5-0.3,0.8c-0.9,0.5-2.1,0.6-3,1.3c-0.4,0.2-0.8,0.4-1.2,0.5
			c-2.3,0.8-3.8,2.5-5.3,4.3c-1.2,1.5-2.3,3.1-3.3,4.8C63.6,364.2,63.4,364.2,63.2,364.1z"/>
		<path fill="#DFDEDE" d="M76.8,352.7c-0.4-0.5-1-0.3-1.5-0.3c1.7-0.5,3.5-0.8,5.3-0.8c0,0.1,0,0.2,0,0.3c-0.3,0.4-0.8,0.6-1.2,0.7
			C78.5,352.8,77.7,353.3,76.8,352.7z"/>
		<path fill="#DFDEDE" d="M72.7,353.1c-0.6,0.9-1.6,1.2-2.7,1.5C70.7,353.7,71.7,353.4,72.7,353.1z"/>
		<path fill="#D1CFCF" d="M63.2,364.1c0.1,0,0.2,0,0.4,0c0.8,1.6-0.2,2.9-0.5,4.3c-0.5,2.2-0.8,4.4-0.8,6.7c0,15-0.1,30.1,0,45.1
			c0.1,6.4,2.2,12.1,7.5,16.2c1.2,0.7,2.3,1.6,3.5,2.2c2.8,1.4,5.8,2.1,9,1.9c1,0.2,2.3-0.5,2.8,1c-3,0.9-5.9,0.5-8.9-0.1
			c-3.3-0.6-5.9-2.4-8.3-4.6c-2.1-1.8-3.7-4.1-5.1-6.4c-0.1-0.1-0.2-0.2-0.4-0.4c1-1.2-0.2-2.3-0.5-3.3c-0.9-3.2-1-6.4-1-9.7
			c0-14.6,0-29.2,0-43.7C61,370.1,61.9,367,63.2,364.1z"/>
		<path fill="#D9D7D6" d="M75.7,441c3.1,0.5,6.3,0.4,9.4,0.4c1-0.7,2.1-0.8,3.2-0.9c9.3-0.6,18.6-0.5,27.8-0.4
			c6.6,0.1,13.1,1,19.7,0.8c0.8,0,1.7-0.1,2.4,0.5c-2.3,1.1-4.8,1-7.1,0.7c-2.7-0.4-5.3-0.2-8-0.3c-0.3,0.2-0.7,0.3-1,0.2
			c-0.7-0.2-1.3-0.2-2.1-0.2c-8.8,0-17.5,0-26.3,0c-0.7,0-1.4,0-2,0.2c-0.3,0.1-0.7,0.1-1,0.1c-1,0-2,0-3,0
			c-1.3,0.1-2.5-0.1-3.8,0.1c-0.6,0.1-1.2,0.1-1.8,0.1c-1.5-0.2-3-0.1-4.5-0.1c-0.2,0.1-0.4,0.1-0.5-0.1c-0.1,0-0.2,0-0.4,0
			c-0.3-0.5-0.7-0.4-1.1-0.4C75.5,441.6,75.5,441.3,75.7,441z"/>
		<path fill="#DFDDDD" d="M75.7,441c0,0.2,0,0.5,0,0.8c-5.8-2.1-10.2-5.7-12.8-11.3c1.3,0.6,1.6,2.1,2.4,3.1
			C68.1,437.1,71.4,439.7,75.7,441z"/>
		<path fill="#E4E2E2" d="M60.6,370.9c-0.2,1.1,0.4,2.3-0.4,3.4C60.4,373.1,59.8,371.9,60.6,370.9z"/>
		<path fill="#E4E2E2" d="M60.2,420.3c0.8,1.1,0.2,2.3,0.4,3.4C59.8,422.6,60.4,421.4,60.2,420.3z"/>
		<path fill="#E4E3E2" d="M90.8,441.8c0.2,0,0.5,0,0.8,0c0.4-0.3,0.8-0.2,1.3-0.2c9.5,0,18.9,0,28.4,0c0.4,0,0.9-0.1,1.3,0.2
			c0.2,0,0.5,0,0.8,0c1.2,0.8,2.5,0.2,3.8,0.4c1,0.2,2.1-0.4,3,0.4c-15.2-0.5-30.4-0.5-45.7,0c-0.2-0.2-0.1-0.4,0.1-0.5
			c1.1-0.1,2.1,0,3.2,0C88.7,441.9,89.8,442.2,90.8,441.8z"/>
		<path fill="#E1DFDE" d="M84.4,442.2c0,0.1,0,0.2,0,0.4c-1.2,0-2.5,0-3.8,0c-0.1-0.2-0.1-0.3,0.1-0.5c0.5,0,1-0.2,1.4,0.1
			c0.6,0,1.2,0,1.9,0C84.1,442,84.3,442,84.4,442.2z"/>
		<path fill="#E4E3E2" d="M80.6,442.2c0,0.1,0,0.2,0,0.4c-1.2,0.6-2.3,0.1-3.4-0.4c0.1,0,0.2,0,0.4,0
			C78.6,441.9,79.6,441.9,80.6,442.2z"/>
		<path fill="#CCCAC9" d="M136.1,441.4c-11.8-0.1-23.5-1.1-35.3-0.8c-5.2,0.1-10.5,0.4-15.7,0.8c-0.9-0.8-2-0.2-3-0.4
			c0.1-1,1-0.8,1.6-0.9c9.4-0.6,18.8-1.5,28.2-1.1c5,0.2,10,0.6,15,1c4.1,0.3,8.2,1,12.3-0.6c3.8-1.5,7-3.6,9.3-7
			c0.5-0.7,0.8-1.6,1.9-1.7c0.4,0.5,0.3,1,0.1,1.6c-0.2,0.4-0.5,0.8-0.8,1.1c-0.4,0.9-1.2,1.6-1.9,2.3c-1.2,1-2.5,2-3.8,3
			c-1,0.9-2.2,1.4-3.4,1.9C139,440.8,137.6,441.2,136.1,441.4z"/>
		<path fill="#D8D7D7" d="M152.7,365.6c0.1,0.6-0.2,1.4,0.4,1.9c0.7,3.1,0.9,6.1,0.9,9.3c0,13.6,0,27.2,0,40.7
			c0,3.1-0.3,6.2-0.9,9.3c-0.6,0.5-0.3,1.2-0.4,1.9c-0.2,0.3-0.5,0.8-0.9,0.2c-0.2-0.8,0.1-1.5,0.1-2.2c0.4-2.3,0.7-4.6,0.7-6.9
			c0-15.3,0-30.6,0-46c0-2-0.3-3.9-0.7-5.8c-0.1-0.2-0.1-0.4-0.2-0.6c-0.1-0.5-0.2-1-0.1-1.5c0-0.2,0.1-0.4,0.2-0.5
			C152.3,364.9,152.5,365.3,152.7,365.6z"/>
		<path fill="#DFDEDE" d="M153.1,426.7c1.6-16.9,0.4-33.8,0.7-50.7c0.1-2.9-0.4-5.7-0.7-8.5c1.2,2.2,1.1,4.8,1.1,7.1
			c0.2,15,0.2,30,0,45C154.1,421.9,154.2,424.5,153.1,426.7z"/>
		<path fill="#D5D3D4" d="M151.9,365.2c0,0.1,0,0.2,0,0.4c-0.4,0.2-0.7,0-1-0.2c-0.4-0.3-0.5-0.8-0.6-1.2c-0.1-1.6-1.4-2.6-1.6-4.2
			c0-0.2,0.1-0.4,0.2-0.5c0.5,0.5,1,1,1.5,1.5c0.1,0.6,0.3,1.1,0.8,1.5C151.3,363.5,152.3,364.1,151.9,365.2z"/>
		<path fill="#D7D5D5" d="M152.3,427.1c-0.1,0.6-0.2,1.2-0.4,1.9c0.2,0.2,0.2,0.4,0.1,0.7c-0.6,0.5-0.8,1.3-1.2,1.9
			c0,0.3-0.1,0.6-0.4,0.8c0-0.5,0-1,0-1.5c-0.3-1.5,0.6-2.6,1.4-3.8C152,426.9,152.2,426.9,152.3,427.1z"/>
		<path fill="#D9D7D6" d="M140.6,440.3c1.1-0.5,2.2-1,3.4-1.5c-0.8,1.5-2.3,1.9-3.8,2.3C140,440.6,140.4,440.5,140.6,440.3z"/>
		<path fill="#D7D5D5" d="M140.6,440.3c-0.1,0.2-0.2,0.5-0.4,0.8c-0.6,0.1-1.4-0.2-1.9,0.4c-0.8,0-1.5,0-2.3,0
			C137.5,440.8,139.1,440.6,140.6,440.3z"/>
		<path fill="#DFDEDE" d="M147.8,435.8c0.2-1.1,1.1-1.6,1.9-2.3C149.7,434.8,149,435.5,147.8,435.8z"/>
		<path fill="#DFDEDE" d="M151.9,365.2c-0.1-0.9-0.9-1.6-0.8-2.6c0.8,0.9,1.2,1.9,1.5,3C152.4,365.4,152.2,365.3,151.9,365.2z"/>
		<path fill="#D8D7D7" d="M150.8,431.6c0.1-0.8,0.4-1.5,1.1-1.9c0.1,0.1,0.2,0.2,0.1,0.2c0,0.1-0.1,0.1-0.1,0.1
			C151.6,430.7,151.5,431.3,150.8,431.6z"/>
		<path fill="#DFDEDE" d="M151.9,430.1c0-0.1,0-0.2,0-0.4c0-0.2,0-0.5,0-0.8c0.2-0.1,0.5-0.2,0.8-0.4
			C152.6,429.2,152.4,429.7,151.9,430.1z"/>
		<path fill="#D2D2D3" d="M148.9,359.5c0,0.1,0,0.2,0,0.4c-2.5-2-5-4-7.2-6.4l0,0C144.9,354.6,147.2,356.8,148.9,359.5z"/>
		<path fill="#62C6E7" d="M79.4,352.3c0.3-0.4,0.8-0.3,1.2-0.4c17.2,0,34.4,0,51.7,0.1c1,0,2,0,3,0c0.2,0.1,0.2,0.3,0,0.5
			c-0.9,0.4-1.8,0.6-1.7,1.8c0,0.5-0.4,0.5-0.8,0.6c-16.2-0.2-32.3,0-48.4-0.1c-1.1,0-2.1,0.3-3.2,0.1
			C79.9,354.5,79.8,353.3,79.4,352.3z"/>
		<path fill="#CACCCF" d="M141.7,353.5c2.6,1.8,5.1,3.9,7.2,6.4c0.6,1.4,1.7,2.6,1.9,4.1c-0.4,0.2-0.6,0-0.9-0.2
			c-0.1-0.1-0.1-0.2-0.2-0.2c-0.2-0.1-0.1-0.9-0.5-0.2c-0.3,0-0.4-0.2-0.6-0.5c-1-2.6-2.7-4.8-4.9-6.4c-1.4-1.6-3.4-2.2-5.1-3.4
			c0-0.2,0-0.4,0.2-0.5c0.4-0.1,0.8-0.2,1.1,0.1C140.4,353.2,141.1,353.3,141.7,353.5z"/>
		<path fill="#D2D2D3" d="M139.9,352.7c-0.4,0-0.8,0-1.2,0c-0.4,0.4-0.9,0.4-1.4,0.3c-0.6-0.2-1.4-0.1-1.9-0.7
			c0-0.1-0.1-0.2-0.1-0.3C136.8,352,138.5,351.6,139.9,352.7z"/>
		<path fill="#C6C4C4" d="M70,436.9c-3.4-1.9-5.4-5-6.7-8.5c-1.4-3.6-1.6-7.4-1.6-11.2c0.1-11.5,0.1-23,0-34.5
			c0-6.3-0.1-12.5,1.9-18.6c1.9-4,4.4-7.6,8.7-9.4c-0.2,1.4-1.6,1.8-2.4,2.7c-0.9,0.9-1.9,1.8-2.7,2.9c-1.3,1-1.7,2.6-2.3,4
			c-1.7,4.6-2,9.4-1.9,14.3c0.1,13.8,0,27.7,0,41.5c0,6.1,2.2,11.4,6.8,15.6C70,436,70.2,436.4,70,436.9z"/>
		<path fill="#5EB9D8" d="M67.1,359.9c1.2-2.2,3.5-3.5,5.2-5.3c0.4-0.1,0.7-0.3,1.1-0.4c2.3-0.6,3.2,0,3.5,2.2
			c-0.1,0.2-0.2,0.4-0.3,0.5c-0.5,0.4-1,0.9-1.8,0.7c-1.1-1.8-1.7-1.9-3.3-0.6c-1,0.8-1.9,1.8-2.5,2.9c-1.1,1.8-1,2.2,0.8,3.4
			c0.2,0.5,0,0.9-0.5,1.3c-1.9,0.7-2.8-0.5-3.5-1.9C65.8,361.6,66.4,360.7,67.1,359.9z"/>
		<path fill="#5FC3E4" d="M79.4,352.3c1.2,0.4,1,1.4,1.2,2.3c-0.4,0.8-1.2,1-2,1.3c-0.3,0.1-0.5,0-0.8-0.2c-0.4-1-1.6-1.5-1.5-2.8
			c0.2-0.1,0.3-0.2,0.4-0.4C77.7,352.6,78.6,352.5,79.4,352.3z"/>
		<path fill="#60BFE0" d="M76.4,353c0.4,1,1.8,1.4,1.6,2.7c-0.2,0.7-0.7,1.2-1.5,0.8c-0.1-1.8-0.7-2.2-3-2.3
			C74.3,353.5,75.3,353.2,76.4,353z"/>
		<path fill="#C4C2C2" d="M150.1,363.7c0.2,0.1,0.5,0.2,0.8,0.4c0,0.4-0.1,0.9,0.4,1.1c0.5,0.5,0.5,1.3,0.8,1.9l0,0
			c0.6,2.5,0.9,5,0.9,7.6c0,15,0,29.9,0,44.8c0,2.6-0.3,5.1-0.9,7.6c-0.5,1.2-1,2.5-1.5,3.8c-1.1,0.7-1.4,1.9-2.2,2.8
			c-4.5,5.5-10.2,7.8-17.4,7.1c-4.1-0.4-8.2-0.6-12.3-0.9c-5.7-0.4-11.4-0.4-17.1-0.2c-6.2,0.2-12.5,0.7-18.7,1.1
			c-0.2,0-0.4,0.2-0.7,0.3c-2.8,0.2-5.3-0.6-7.9-1.4c-0.5-0.1-0.9-0.3-1.2-0.8c1.2-0.8,2.2,0.5,3.4,0.4c0.3,0.1,0.6,0.2,0.9,0.2
			c2.3,0.6,4.6,0.2,6.9,0.3c0.7,0,1.5,0,2.2-0.2c1.7-0.1,3.4-0.3,5.1-0.5c1.2,0,2.5,0.1,3.7-0.3c7.9-0.1,15.7-0.2,23.6,0
			c2.4,0.4,4.9,0.5,7.4,0.7c2.5,0.4,4.9,0.4,7.4,0.4c1.4,0,2.9-0.1,4.2-0.5c3.1-0.8,5.8-2.2,8-4.5c0.5-0.7,1.1-1.3,1.5-2
			c0.2-0.3,0.4-0.5,0.6-0.7c2.4-3,3.4-6.6,3.5-10.3c0.1-16.5,0.1-32.9,0-49.3c0-2.1-0.4-4.1-1.1-6.1
			C149.9,365.5,149.4,364.6,150.1,363.7z"/>
		<path fill="#BEBCBC" d="M76.5,439.5c-1.2,0.3-2.2-0.9-3.4-0.8c-1.2-0.3-2.1-1.1-3-1.9c-0.1-0.2-0.2-0.5-0.4-0.8
			c0.2-0.2,0.5-0.2,0.8-0.2c1,0.4,1.8,1.2,2.8,1.5C74.2,438.3,75.9,438,76.5,439.5z"/>
		<path fill="#E1DFDE" d="M122.5,441.8c-10.3,0-20.6,0-30.9,0c0.5-0.6,1.2-0.4,1.8-0.4c9.1,0,18.3,0,27.4,0
			C121.3,441.4,122,441.2,122.5,441.8z"/>
		<path fill="#DFDDDD" d="M80.6,442.2c-1,0-2,0-3,0c1.5-0.6,3-0.6,4.5,0C81.6,442.2,81.1,442.2,80.6,442.2z"/>
		<path fill="#DFDDDD" d="M84.4,442.2c-0.1,0-0.2,0-0.4,0c1.2-0.8,2.5-0.2,3.8-0.4c0.1,0.1,0.2,0.2,0.1,0.2c0,0.1-0.1,0.1-0.1,0.1
			C86.6,442.2,85.5,442.2,84.4,442.2z"/>
		<path fill="#E1DFDE" d="M87.8,442.2c0-0.1,0-0.2,0-0.4c1,0,2,0,3,0C89.9,442.6,88.8,442,87.8,442.2z"/>
		<path fill="#CACCCF" d="M151.9,427.1c1.6-17.4,0.3-34.8,0.8-52.2c0.1-2.6-0.7-5.2-0.8-7.8c1.1,1.7,1.1,3.7,1.1,5.6
			c0.1,16.3,0.1,32.6,0,48.9c0,1.9-0.5,3.7-0.7,5.6C152.2,427.1,152.1,427.1,151.9,427.1z"/>
		<path fill="#CACCCF" d="M151.9,367.1c-0.5-0.5-0.6-1.2-0.8-1.9c0.2,0.1,0.5,0.2,0.8,0.4C151.9,366.1,151.9,366.6,151.9,367.1z"/>
		<path fill="#A4DEF9" d="M78.7,355.7c0.6-0.4,1.3-0.7,1.9-1.1c10.4-0.9,20.9-0.2,31.4-0.4c6.1-0.1,12.2,0,18.3,0
			c1.1,0,2.1,0.1,3.1,0.4c0.6-0.4,1.1-0.1,1.6,0.2c0.8,1.4,1.9,2.5,3.3,3.3c0.9,0.5,1.6,1.3,2.2,2c1.7,1.9,3.4,3.8,5.8,4.9
			c1.1,1.8,1.6,3.7,1.6,5.7c0,2.8,0.3,5.7-0.2,8.5c-0.8,1.1-2,1.3-3.2,1.1c-0.2-0.1-0.3-0.3-0.4-0.5c-0.4-2.1-0.1-4.3-0.2-6.5
			c0-0.9,0.1-1.7-0.3-2.5c-2.1-8.8-7.6-13.1-16.6-13.1c-12.7,0-25.4,0-38.1,0c-3.1,0-6.2,0.3-9,1.5c-0.6,0.2-1.2,0.5-1.8,0.3
			C77.2,358.2,78.2,357,78.7,355.7z"/>
		<path fill="#5FC2E3" d="M135,355c-0.5-0.1-1-0.3-1.5-0.4c-0.6-2-0.5-2.2,1.9-2.2c0.6,0,1.3-0.2,1.9,0.3c-0.9,0.7-1,1.8-1.2,2.8
			C135.5,355.7,135.2,355.4,135,355z"/>
		<path fill="#5FC5E7" d="M147.4,379.5c-0.2-3.7,0.4-7.5-0.4-11.2c-0.3-1.2-0.8-2.4-1.2-3.5c-0.1-0.2-0.1-0.3,0-0.5
			c1.1-0.2,1.8-1.4,3.1-1.4c0.1,0.1,0.2,0.2,0.4,0.4c0.7,1.3,0.9,2.7,1.3,4.1c0,3.1,0,6.3,0,9.4c0,0.9,0,1.8-0.9,2.3
			c-1.4,0.8-1.3,2-1.3,3.3c0,10.5,0,21,0,31.5c0,1,0.4,2.3-0.9,3c-1.1-1.6-0.5-3.4-0.6-5.1c-0.1-9.8,0-19.7-0.1-29.5
			C146.8,381.4,146.7,380.4,147.4,379.5z"/>
		<path fill="#B8B6B6" d="M150.1,367.1c-0.2-1.2-0.5-2.5-0.8-3.8c0.1-0.1,0.1-0.3,0.2-0.5c0.2,0.3,0.4,0.6,0.6,0.9
			c0.3,2.3,1.6,4.3,1.7,6.7c0.1,0.7,0.2,1.5,0.2,2.2c0,16.3,0.1,32.7-0.1,49c0,4.1-0.9,8.1-4.1,11.1c-0.3-0.3-0.3-0.6-0.3-1
			c2.8-4.2,3.3-8.9,3.2-13.8c-0.1-13.5-0.1-27.1-0.1-40.6c0-2.9,0.1-5.8-0.2-8.6C150.2,368.1,150.4,367.6,150.1,367.1z"/>
		<path fill="#58B6D5" d="M138.7,353.1c2.1,0.4,3.8,1.6,5.3,3c1,1.5,2.6,2.5,3,4.3c0.1,0.9-0.1,1.6-0.7,2.2c-0.5,0.3-1,0.3-1.5,0.2
			c-0.6-0.2-1.1-0.6-1-1.3c0.2-0.4,0.6-0.4,0.9-0.5c0.7,0,0.9-0.4,0.6-1c-1.3-2-2.7-3.9-4.8-5.1c-0.5-0.3-1.1-0.6-1.5,0
			c-0.3,0.5,0.4,0.8,0.7,1.2c0.9,1,2.5,1.3,2.3,3c-2.1-0.2-3.2-1.8-4.6-3C136.4,354.1,136.7,353.2,138.7,353.1z"/>
		<path fill="#5ABBDB" d="M146.7,360.3c-0.6-1.6-2.2-2.5-2.7-4.1c2.3,1.8,4.2,3.9,4.9,6.8c-1,0.6-1.6,1.9-3.1,1.5
			c-0.8,0.1-0.9-0.6-1.3-1.1c-0.1-0.3-0.1-0.5,0.2-0.8c0.5,0,1,0,1.6,0C146.8,361.9,147.1,361.1,146.7,360.3z"/>
		<path fill="#5BBBDB" d="M138.7,353.1c-1.8,0.8-1.9,1.2-0.8,3c-0.5,0.4-1,0.1-1.4-0.1c-0.2-0.1-0.4-0.4-0.4-0.6
			c-0.7-1.4-0.4-2.3,1.2-2.7c0.4,0,0.9,0.1,1.4,0.1C138.7,352.9,138.7,353,138.7,353.1z"/>
		<path fill="#B5B4B4" d="M70.4,436.1c-0.2,0-0.5,0-0.8,0c-4.6-3.9-7-9-7.1-14.9c-0.2-16.1-0.1-32.2,0-48.4c0-3.2,0.9-6.2,2.2-9.2
			c0.6-0.1,0.6,0.4,0.8,0.7c0,0.2,0.1,0.4,0,0.6c-0.2,1.1-0.3,2.2-0.3,3.3c0,0.8,0.1,1.6-0.2,2.3c-0.5,0.7-0.8,0.1-0.9-0.3
			c-0.2-0.4,0.1-0.8-0.2-1.1c0.3,0.3,0.1,0.5,0.1,0.8c0,0.2-0.1,0.3-0.1,0.5c-0.2,0.9,0,1.9-0.2,2.9c0,0.2-0.1,0.4-0.2,0.6
			c-0.2,3.5-0.1,7-0.1,10.5c0,11.9-0.1,23.7,0.1,35.5c0.1,0.2,0.1,0.4,0.2,0.6c0.2,1,0,2,0.2,2.9c0,0.2,0.1,0.4,0.2,0.5
			c0.1,0.6,0.1,1.2,0.3,1.8c0.7,2.6,2,4.8,3.6,6.9c0.5,1,1.3,1.7,2.2,2.3c0.2,0.2,0.3,0.4,0.3,0.7C70.5,436,70.4,436.1,70.4,436.1z"
			/>
		<path fill="#B8BABC" d="M65.1,364.4c0-0.3-0.1-0.6-0.4-0.8c0.5-1.4,0.8-3,2.3-3.8c-0.4,0.9-0.8,1.8-1.2,2.6
			C66.2,363.4,66.2,364.2,65.1,364.4z"/>
		<path fill="#A0DCF5" d="M78.7,355.7c0.4,1.4-0.7,2.5-0.7,3.8c0.1,0.2,0.1,0.4,0,0.5c-2.2,1.9-4.1,4.2-5.9,6.4
			c-1.3,0.2-2.5,1.5-4,1c-0.3-0.5-0.1-1.1,0.1-1.6c0.2-0.5,0.4-1,1-1.2c1.1-0.5,2-1.3,2.5-2.4c0.5-1,1.3-1.7,2.1-2.3
			c1.1-0.9,2-1.9,2.7-3c0-0.1,0-0.2,0-0.4c0.7,0,1-0.5,1.5-0.8C78.2,355.7,78.5,355.7,78.7,355.7z"/>
		<path fill="#56B6D5" d="M69.7,363.3c-1.9-0.2-2.3-0.8-1.5-2.5c0.9-2,2.2-3.8,4.2-4.8c1.7-0.9,2.4-0.3,2.6,1.6
			C73.3,359.6,71.8,361.8,69.7,363.3z"/>
		<path fill="#9AD3EC" d="M69.7,363.3c1.7-2,3.1-4.1,5.3-5.7c0.5-0.2,0.9-0.8,1.5-0.8c0,0.2,0.1,0.4,0,0.5c-2.2,2.6-4.1,5.6-7.1,7.4
			c-0.1-0.1-0.2-0.1-0.1-0.2c0-0.1,0.1-0.1,0.1-0.1C69.4,364.1,69.5,363.7,69.7,363.3z"/>
		<path fill="#5DBDDE" d="M69.3,364.4c0,0.1,0,0.2,0,0.4c-0.2,0.4-0.5,0.8-0.8,1.1c-1.6,1-2.4,0-3.3-1.1c0-0.1-0.1-0.2-0.1-0.4
			c0.3-0.6,0.5-1.2,0.8-1.9C66.9,363.5,67.5,364.9,69.3,364.4z"/>
		<path fill="#B8B6B6" d="M119.1,439.2c-8.1,0-16.1,0-24.2,0c0-0.1,0-0.2-0.1-0.3c0.1-0.2,0.2-0.3,0.5-0.4c0.4-0.1,0.8-0.2,1.2-0.2
			c3.1,0,6.1-0.3,9.1-0.7c2.2-0.3,4.5,0.3,6.7,0.4c1.6,0.1,3.2,0.2,4.8,0.2c0.7,0,1.3,0,1.8,0.6
			C119.1,438.9,119.1,439.1,119.1,439.2z"/>
		<path fill="#AAA6A6" d="M147.8,432c0,0.2,0,0.5,0,0.8c-0.1,0.1-0.2,0.2-0.4,0.4c-0.6,0.8-1.3,1.4-1.9,2.2c-2.1,2-4.6,3.3-7.4,4.1
			c-0.6,0.1-1.3,0.2-1.9-0.1c-0.3-1.1,0.7-0.9,1.2-1.1c1.4-0.4,2.8-0.8,4-1.8c0.1-0.1,0.3-0.2,0.4-0.3c2.1-0.9,3.1-3,4.9-4.1
			C147.1,431.9,147.4,431.8,147.8,432z"/>
		<path fill="#B2AFAF" d="M76.5,439.5c-1-0.9-2.6-0.7-3.4-1.9c0.1,0,0.2-0.1,0.2-0.2c1.7-0.1,3.2,0.9,4.8,1.2c2.6,0.4,5.1,0.3,7.6,0
			c0.7,0,1.4,0,2.1-0.2c0.6-0.1,1.2-0.2,1.8,0.2c0.1,0.2,0.1,0.4,0,0.6c-1.6,0.7-3.3,0.3-4.9,0.8c-0.2,0-0.4,0.1-0.6,0
			c-2.4,0.2-4.9-0.2-7.3-0.2C76.7,439.8,76.6,439.7,76.5,439.5z"/>
		<path fill="#BCB9B9" d="M138.3,439.2c2.7-0.9,5.1-2.3,7.2-4.1c0.2-0.2,0.5-0.2,0.8,0c-2.2,2.2-4.8,3.9-7.9,4.5
			c-0.1-0.1-0.1-0.1-0.2-0.2C138.3,439.3,138.3,439.2,138.3,439.2z"/>
		<path fill="#BCB9B9" d="M138.4,439.5c-3.3,1.4-6.7,0.7-10.1,0.6c-0.7,0-1.4-0.2-2-0.2c-0.1-0.2-0.1-0.4,0.2-0.6
			c0.2-0.1,0.5-0.3,0.7-0.2C130.9,439.7,134.6,439.2,138.4,439.5L138.4,439.5z"/>
		<path fill="#B8B6B6" d="M126.3,439.5c0,0.1,0,0.2,0,0.4c-2.4-0.2-4.8-0.2-7.2-0.8l0,0c1.3-0.9,2.9-0.4,4.3-0.5
			C124.5,438.7,125.5,438.7,126.3,439.5z"/>
		<path fill="#BBB8B7" d="M84.8,439.9c1.6-0.6,3.3-0.4,4.9-0.8c0.5-0.4,1.1-0.5,1.7-0.2c0.2,0.1,0.2,0.3,0.2,0.5
			c-1.8,0.2-3.5,0.5-5.3,0.4C85.8,440.2,85.3,440.2,84.8,439.9z"/>
		<path fill="#BBB8B7" d="M76.8,439.9c0.7-0.6,1.4-0.4,2.1-0.2c1.8,0.5,3.6,0.1,5.4,0.2c0.1,0.1,0.2,0.2,0.1,0.2
			c0,0.1-0.1,0.1-0.1,0.1C81.9,440.2,79.3,440.5,76.8,439.9z"/>
		<path fill="#B8B6B6" d="M146.3,435c-0.2,0-0.5,0-0.8,0c0.5-0.8,1.1-1.4,1.9-1.9C147.4,434,146.5,434.3,146.3,435z"/>
		<path fill="#B8B6B6" d="M91.6,439.5c0-0.1,0-0.2,0-0.4c0.1-0.1,0.2-0.1,0.2-0.2c1.1-0.4,2.2-0.5,3.2,0.2l0,0
			C93.9,439.9,92.7,439.4,91.6,439.5z"/>
		<path fill="#BEBCBC" d="M84.4,440.3c0-0.1,0-0.2,0-0.4c0.1,0,0.2,0,0.4,0c0.5,0,1,0,1.5,0C85.7,440.5,85,440.2,84.4,440.3z"/>
		<path fill="#B2AFAF" d="M73.1,437.7c-1.2,0-1.9-0.7-2.7-1.5h0C71.9,435.6,72.7,436.2,73.1,437.7L73.1,437.7z"/>
		<path fill="#60CAEA" d="M71.9,366.3c1.5-2.7,3.7-4.8,6-6.8c3.5-1.7,7.2-2.3,11.1-2.3c12.8,0.1,25.5,0.1,38.3,0
			c4.4,0,8.3,1.1,11.6,4c2.8,2.5,4.6,5.8,5,9.6c0.4,2.4,0.1,4.8,0.2,7.2c0,0.7-0.2,1.5,0.2,2.2l0,0c0.7,0.7,0.6,1.6,0.6,2.5
			c0,8.3,0,16.6,0,25c-0.1,2.2,0.1,4.4,0,6.6c-0.1,0.8,0.2,1.8-0.9,2.2c-1.1-1.5-0.4-3.2-0.6-4.9c0-9.4,0-18.8,0-28.2
			c0-2-0.3-2.2-2.2-1.7c-3.7,0.9-7.4,1.9-11.2,2.2c-0.9-0.1-1.6-0.7-2.3-1.2c-2.2-1.7-4.6-2.4-7.3-2.4c-3.9,0.1-7.9,0-11.9,0
			c-3,0-3.4-0.4-3.4-3.4c0.1-4.5-1.9-7.9-5.7-10.1c-7.5-4.4-16.5,0.8-17,9.6c-0.1,1.5,0,2.9,0,4.4c0,0.8,0.1,1.5-0.4,2.2
			c-0.4,0.3-0.8,0.4-1.2,0.3c-3.1-0.5-6.2-1.2-9.1-2.1c-0.3-0.1-0.7-0.3-0.9-0.7c-0.6-2.8-0.1-5.5-0.3-8.3
			C70.4,370.1,70.4,368,71.9,366.3z"/>
		<path fill="#96CFE8" d="M144.4,407.8c0-9.2,0-18.4,0-27.5c1-0.2,2-0.5,3-0.8c0,10.8,0,21.6,0,32.5c-0.9,0.5-1.2-0.4-1.5-0.9
			C145.3,410.1,144.9,408.9,144.4,407.8z"/>
		<path fill="#9ED9F2" d="M136.1,355.4c0.1,0.1,0.2,0.2,0.4,0.4c3.3,1.9,5.6,5,8.3,7.5c0.3,0.4,0.7,0.8,1.1,1.1c0,0.1,0,0.2,0,0.4
			c-1.4-0.1-2.7-0.8-3.5-1.9c-1.6-2.1-3.3-3.9-5.5-5.2c-1-0.6-1.7-1.4-1.9-2.6C135.3,355.1,135.7,355.3,136.1,355.4z"/>
		<path fill="#96CFE8" d="M144.4,380.3c-0.8-1.5-0.2-3.2-0.3-4.8c-0.1-1.5,0-3.1,0-4.7c0.8,1.7,0.2,3.4,0.4,5.1
			C144.5,377.4,144.4,378.9,144.4,380.3z"/>
		<path fill="#59B7D7" d="M150.1,367.1c0.4,0.3,0.3,0.8,0.4,1.2c0.3,1.4,0.4,2.8,0.4,4.3c0,15.4,0,30.8,0,46.2c0,1,0.1,1.9-0.2,2.8
			c-0.3,1.5-0.1,3.2-1.7,4.2c-0.9-0.5-0.9-1.4-0.9-2.3c-0.1-1.5-0.2-3-0.9-4.3c-0.2-0.8-0.3-1.6,0.4-2.2c0.6-0.6,0.3-1.4,0.3-2.1
			c0-11.2,0-22.4,0-33.5c0-1.2,0-2.1,1.4-2.4c1-0.2,0.8-0.9,0.8-1.6C150.1,373.8,150.1,370.4,150.1,367.1z"/>
		<path fill="#99D1EA" d="M147.4,416.9c0,0.8,0,1.5,0,2.2c0,1.9,0,3.8-2,4.9c-0.7-1.4-0.6-3-1-4.4c-0.2-0.7-0.3-1.3-0.6-1.9
			c-0.1-0.4-0.1-0.8,0.2-1.1c0.8-1.9,0.2-3.9,0.4-5.9c0.1-0.9,0-1.9,0-2.8c1.1,0.6,1.2,1.8,1.8,2.8c0.4,0.5,0.4,1.4,1.3,1.4
			C147.4,413.6,147.4,415.3,147.4,416.9z"/>
		<path fill="#A7A4A3" d="M150.4,372.4c0-1.4,0-2.8,0-4.1c0.6,1.2,0.8,2.5,0.8,3.8c0,16.7,0,33.4,0,50.1c0,3.6-1.3,6.9-3.4,9.9
			c-0.2,0.1-0.5,0.2-0.8,0.4c-0.2-0.2-0.3-0.5-0.3-0.8c0-0.4,0.2-0.8,0.5-1.1c2.1-2.7,2.7-5.9,3.3-9.2c0.2-0.6,0.2-1.2,0.2-1.9
			c0-15.1,0-30.3,0-45.4C150.6,373.5,150.8,372.9,150.4,372.4z"/>
		<path fill="#54B2D1" d="M142.1,359.2c-0.7-1.3-2-2-3.1-3c-0.4-0.4-1.1-0.9-0.7-1.6c0.4-0.6,1.2-0.5,1.7-0.4
			c1.5,0.2,6.1,4.9,6.1,6.4c0,1.9-1.4,0.8-2.2,0.8C142.6,361.3,142.1,360.5,142.1,359.2z"/>
		<path fill="#9AD3EC" d="M142.1,359.2c0.4,0.9,1,1.7,1.9,2.2c0,0.5,0.3,0.9,0.8,1.1c0,0.2,0.1,0.5,0.1,0.7
			c-0.5-0.2-1.1-0.2-1.4-0.5c-2-2.7-4.8-4.5-7-7c0.5,0.1,1,0.3,1.5,0.4C139.3,357.3,140.6,358.4,142.1,359.2z"/>
		<path fill="#57B7D6" d="M146.7,360.3c0.6,0.9,0.6,1.6-0.4,2.3C146.4,361.8,146.8,361.1,146.7,360.3z"/>
		<path fill="#A9A6A5" d="M73.1,437.6c-0.7-0.8-1.5-1.5-2.7-1.5c-0.1-0.2-0.2-0.5-0.4-0.8c-0.9-0.6-1.6-1.4-2.2-2.3
			c-2-2-3.3-4.4-3.8-7.2c-0.5-0.6,0.1-1.3-0.4-1.9l0,0c-0.5-1,0.1-2.1-0.4-3c0-0.1,0-0.2,0-0.4c-0.3-0.5-0.2-1-0.2-1.5
			c0-14.8,0-29.5,0-44.2c0-0.5-0.1-1,0.2-1.5c0-0.1,0-0.2,0-0.4c0.5-1-0.1-2,0.4-3l0,0c0.5-0.6-0.1-1.3,0.4-1.9
			c0.9,0.7,0,1.9,0.7,2.6c0.7,0.5,0.7,1.3,0.7,2c0,2,0.1,4,0,6c0.1,13.2,0,26.4,0,39.7c0,0.7,0,1.4-0.4,2c-0.2,0.2-0.4,0.3-0.6,0.1
			c-0.3-0.5-0.2-1-0.2-1.5c0-15.2,0-30.4,0-45.6c0-0.3-0.2-0.6,0-0.8c-0.2,0.2,0,0.6,0,0.9c0,15.1-0.1,30.3,0.1,45.4
			c0.1,5.8,1.6,11.2,6.2,15.2c1.8,1.6,3.9,2.8,6.2,3.4c2.3,0.8,4.7,0.7,7.2,0.7c0.7,0.1,1.3,0,1.9,0.4c0.2,0.1,0.2,0.4,0.1,0.6
			c-3.1,0.4-6.2,0.5-9.3-0.3C75.4,438.4,74.2,438,73.1,437.6z"/>
		<path fill="#5EC5E7" d="M64.8,378.8c0-2.6-0.1-5.3-0.1-7.9c0.1-0.9,0.1-1.8,0.1-2.7c1.2-0.5,2.4-0.3,3.3,0.7
			c-0.2,3.4,0.1,6.7-0.2,10.1c0,0.2-0.2,0.4-0.3,0.6C66.4,380.1,65.5,379.5,64.8,378.8z"/>
		<path fill="#AFACAC" d="M63.2,373.5c0,15.7,0,31.4,0,47.2c-0.6-0.5-0.4-1.3-0.4-1.9c0-14.4,0-28.9,0-43.3
			C62.9,374.8,62.6,374,63.2,373.5z"/>
		<path fill="#5EC2E4" d="M67.8,368.6c-1.1,0.5-2-0.5-3-0.4c-0.1-1.1,0-2.3,0.4-3.4c1.1,0.4,2,1.6,3.3,1.1c-0.1,0.5-0.2,1-0.4,1.5
			C68.4,368,68.2,368.3,67.8,368.6z"/>
		<path fill="#B2AFAF" d="M67.8,433.1c0.9,0.6,1.7,1.4,2.2,2.3C68.9,435.1,68.1,434.3,67.8,433.1z"/>
		<path fill="#AFACAC" d="M63.2,421c0.8,0.9,0.2,2,0.4,3C62.9,423.1,63.4,422,63.2,421z"/>
		<path fill="#AFACAC" d="M63.6,370.1c-0.2,1,0.4,2.1-0.4,3C63.4,372.1,62.9,371,63.6,370.1z"/>
		<path fill="#AFACAC" d="M63.6,424.1c0.6,0.5,0.3,1.2,0.4,1.9C63.4,425.4,63.7,424.7,63.6,424.1z"/>
		<path fill="#AFACAC" d="M64,368.2c-0.1,0.6,0.2,1.4-0.4,1.9C63.7,369.5,63.4,368.7,64,368.2z"/>
		<path fill="#A4DEF9" d="M67.8,368.6c0.1-0.4,0.3-0.8,0.4-1.1c1.3-0.1,2.3-1.3,3.8-1.1c-0.4,1.9-1.2,3.7-1.2,5.6
			c-0.4,2.1,0,4.2-0.2,6.3c-0.1,0.8,0.5,1.8-0.6,2.2c-1,0.3-1.9-0.1-2.6-1C67.5,375.9,67.1,372.2,67.8,368.6z"/>
		<path fill="#B1AFAF" d="M123.6,439.2c-1.5,0-3,0-4.5,0c-0.4-0.5-1-0.3-1.5-0.4c-5.8-0.7-11.5-1.3-17.3-0.4
			c-0.9,0.1-1.8,0.2-2.8,0.2c-0.6-1,0.4-0.9,0.8-1.2c1.1-0.2,2.3-0.2,3.4-0.5c0.2,0,0.4,0,0.7,0.1c4.4-0.6,8.8,0.1,13.1,0.2
			c2.3,0.1,4.4,0.8,6.7,1.1c0.3,0,0.6,0.1,0.9,0.1c0.2,0.1,0.4,0.1,0.5,0.2C123.8,438.8,123.8,439,123.6,439.2z"/>
		<path fill="#B5B3B2" d="M97.2,438.4c3.7-0.2,7.4-1.1,11.2-0.7c3.1,0.3,6.2-0.1,9.2,1.1c-3.1,0.1-6.2-0.3-9.3-0.7
			c-2.2-0.3-4.5,0.2-6.7,0.4c-1.9,0.1-3.7,0.2-5.6,0.2C96.2,437.9,96.7,438.1,97.2,438.4z"/>
		<path fill="#AEACAC" d="M97.2,438.4c-0.4,0-0.8-0.1-1.1,0.4c-0.4,0-0.8,0-1.1,0c-1.1,0.5-2.3-0.1-3.4,0.4l0,0c-0.6,0-1.2,0-1.9,0
			c0-0.1,0-0.2,0-0.4c0.1-0.1,0.2-0.2,0.3-0.2c2.6-0.6,5.2-1.4,7.9-1.2c0.2,0.1,0.4,0.2,0.5,0.4C98,437.9,97.6,438.2,97.2,438.4z"/>
		<path fill="#B5B3B2" d="M91.6,439.2c1.1-0.8,2.3-0.2,3.4-0.4c0,0.1,0,0.2,0,0.4C93.8,439.2,92.7,439.2,91.6,439.2z"/>
		<path fill="#A3A0A0" d="M141.7,436.5c-0.8,1.4-2.3,1.4-3.6,1.9c-0.7,0.2-1.5,0.1-2.1,0.7c-0.1,0.1-0.2,0.1-0.2,0.2
			c-3.4,0.5-6.7-0.1-10-0.6c-1.3-0.4-2.7-0.6-4.1-0.8c-0.2-0.1-0.4-0.1-0.6-0.2c-0.5-0.3-1.1-0.4-1.6-0.6c-0.4-0.2-0.9-0.4-0.3-0.9
			c1.1-0.5,2.3-0.2,3.4-0.2c0.4,0,0.8,0,1.3,0.1c3.9,1.1,7.8,2.1,11.9,1.5c1.4-0.2,2.9-0.4,4.2-1.1
			C140.7,436.3,141.2,436.1,141.7,436.5z"/>
		<path fill="#928E8E" d="M141.7,436.5c-1.9,0.6-3.6,1.7-5.7,1.5c-0.1-0.2-0.1-0.3,0-0.5c1.8-1,4-1.2,5.6-2.8
			c0.1-0.1,0.2-0.2,0.4-0.4c0.9-0.5,1.8-1.1,2.5-1.9c0.7-0.6,1.3-1.3,1.5-2.2c0.4-0.6,0.7-1.3,1.5-1.4c0.9,0.8,0.1,1.4-0.2,2
			c-0.3,0.1-0.4,0.4-0.4,0.8c-1.4,1.8-3.2,3.3-4.9,4.9C142,436.5,141.9,436.5,141.7,436.5z"/>
		<path fill="#B1ADAD" d="M123.6,439.2c0-0.1,0-0.2,0-0.4c0.9-0.7,1.8-0.2,2.7-0.1c3.2,0.5,6.5,1,9.8,0.4l0,0c0.8,0,1.5,0,2.2,0
			c0,0.1,0,0.2,0,0.4c-4,0.7-8.1,0.4-12.1,0C125.4,439.4,124.5,439.3,123.6,439.2z"/>
		<path fill="#9E9B9B" d="M142.1,436.5c1.3-1.9,3.2-3.3,4.9-4.9c0,0.2,0,0.5,0,0.8C145.2,433.5,144.2,435.7,142.1,436.5z"/>
		<path fill="#A7A5A5" d="M98,437.7c-2.8,0-5.5,1.1-8.3,1.1c-0.6,0-1.2,0-1.9,0c0-0.1,0-0.2,0-0.3c0.8-0.9,2-0.5,3-0.8
			c2.2-0.6,4.4-1.4,6.7-1.6c1.5-0.1,3.1-0.4,4.6,0.2c0.3,0.3,0.3,0.5-0.1,0.7C100.6,437.3,99.3,437.4,98,437.7z"/>
		<path fill="#A7A5A5" d="M85.9,439.2c0-0.1,0-0.2,0-0.4c0.6-0.5,1.2-0.5,1.9,0l0,0C87.2,439.4,86.5,439.1,85.9,439.2z"/>
		<path fill="#FFFFFF" d="M81.7,382.9c0.3-2.9-0.2-5.8,0.4-8.6c1.2-6,6.7-10,13-9.5c5.7,0.5,10.4,5.8,10.5,11.7
			c0,3.7-0.5,3.3,3.5,3.4c3.3,0,6.7,0.1,10,0c4.2-0.2,7.7,1,10.6,3.9c2.8,2,3.2,5,3.4,8.1c0.1,1.5-0.2,3.1-0.9,4.5
			c-0.6,1.1-1.1,2.4-2,3.3c-0.8,0.7-1.5,1.6-2.3,2.1c-1.6,1.1-1.6,1.1-0.2,2.3c1.6,1.4,3.1,3,3.9,5c0.6,1.8,1.3,3.5,1,5.4
			c-0.4,1.1-0.1,2.3-0.7,3.3c-0.4,1.1-0.9,2.2-1.6,3.1c-0.3,0.5-0.8,0.9-1.2,1.3c-0.3,0.3-0.6,0.6-0.9,0.8c-0.4,0.5-1,0.8-1.6,1.2
			c-0.4,0.3-0.8,0.5-1.3,0.8c-0.5,0.2-1,0.4-1.4,0.6c-0.5,0.2-1.1,0.4-1.7,0.4c-1,0.1-2,0.4-3,0.4c-0.7,0-1.5,0-2.2,0
			c-0.8,0-1.5,0-2.3,0c-1,0-2,0-3,0c-2.4-0.1-4.9,0.2-7.3-0.4c-0.9,0-1.8-0.2-2.8-0.4c-0.5-0.1-1-0.1-1.4-0.2
			c-0.7-0.2-1.3-0.6-2.1-0.7c-0.7-0.2-1.3-0.5-1.9-0.8c-0.4-0.2-0.8-0.3-1.2-0.4c-0.6-0.2-1-0.8-1.7-1c-0.4-0.2-0.8-0.5-1.2-0.8
			c-0.5-0.4-1-0.8-1.5-1.1c-0.4-0.2-0.8-0.5-1.2-0.8c-0.3-0.2-0.6-0.6-0.8-0.9c-0.3-0.4-0.8-0.8-1.2-1.2c-0.5-0.5-1.1-1-1.6-1.6
			c-1-1.2-1.6-2.6-2.3-3.9c-0.9-1.9-1.5-3.9-1.9-5.9c-0.4-2.2-0.6-4.4-0.5-6.7c0-4.7,0-9.4,0-14C81.1,384.7,81,383.7,81.7,382.9z"/>
		<path fill="#5ABBDA" d="M81.7,382.9c0,5.7,0,11.3,0,17c-1.2,1.6-2.5,3.1-3.7,4.7c-2.5,3.4-4.4,7.1-5.7,11.1
			c-0.5,1.5-0.6,1.5-1.7,1.3c-0.1-0.3-0.2-0.6-0.2-0.9c-0.1-11.1,0-22.2,0-33.3c0-0.8,0-1.5,0.6-2.1C74.4,381.3,78,382.5,81.7,382.9
			z"/>
		<path fill="#5ABBDA" d="M131.6,396.5c1.7-4.6,1-8.9-2-12.8c4.4-0.9,8.7-1.7,13-2.9c1.3-0.4,1.5,0.3,1.5,1.4c0,4.6,0,9.3,0,14
			c0,5.1,0,10.3,0,15.5c-0.8,0.2-1.1-0.5-1.3-1c-2.6-5.3-6.2-9.8-10.9-13.4C131.5,397,131.4,396.8,131.6,396.5z"/>
		<path fill="#97CFE8" d="M70.8,380.7c0,12,0,23.9,0,35.9c-0.9,1-1.1,2.3-1.4,3.5c-0.2,0.7-0.2,1.6-1.2,1.8
			c-0.2-0.1-0.3-0.3-0.5-0.5c-0.7-1.6-0.9-3.4-0.9-5.1c0-11.4,0-22.7,0-34.1c0-0.9-0.1-1.9,0.6-2.7h0.1c3,0.9,3,0.9,3-2.2
			c0.1-1.8-0.4-3.6,0.3-5.3C70.8,374.9,70.8,377.8,70.8,380.7z"/>
		<path fill="#5DBDDC" d="M131.6,396.5c4.7,3.4,8.2,7.7,10.9,12.8c0.4,0.8,0.6,1.8,1.5,2.3c0,1.6,0,3.3,0,4.9c0,0.4,0,0.8,0,1.1
			c0.3,0.7,0.1,1.3-0.2,1.9c-1.1,1.1-1.7,0.3-2-0.7c-0.4-1.2-0.9-2.5-1.3-3.7c-2-5.5-5.4-10.1-9.8-14.1c-0.5-0.4-1.3-0.7-1.1-1.6
			C130.3,398.5,130.9,397.5,131.6,396.5z"/>
		<path fill="#59B9D9" d="M147.4,429c-0.4,0.5-0.8,1-1.2,1.5c-0.5,0.9-1.2,1.5-1.8,2.1c-0.4,0.3-0.9,0.9-1.4,0.2
			c-0.3-1.5-0.6-2.9-0.5-4.4c0.8-1.6,1.7-3.2,3.1-4.4c1.1-1.4,1.2-3.3,1.9-4.9c1.2,0.9,0.9,2.3,1.1,3.5c0.1,1,0.1,2,0.4,2.9
			C149.4,427.1,148.6,428.1,147.4,429z"/>
		<path fill="#A19E9F" d="M150.4,372.4c0.6,0.5,0.4,1.3,0.4,1.9c0,15.2,0,30.4,0,45.6c0,0.6,0.2,1.4-0.4,1.9c-0.1,0.2-0.2,0.2-0.3,0
			c0.1-1.2,0.2-2.4,0.2-3.5C150.4,403,150.4,387.7,150.4,372.4z"/>
		<path fill="#999798" d="M150.1,421.8c0.1,0,0.2,0,0.3,0c-0.3,3.2-0.7,6.5-3,9.1c-0.1-0.6,0.8-1.2,0-1.9c0.4-1.2,1.4-2.1,1.5-3.4
			C149.7,424.4,149.9,423.1,150.1,421.8z"/>
		<path fill="#9BD2EB" d="M145.5,424.1c-0.6,1.6-1.6,2.9-2.6,4.2c-0.4,0.5-0.6,1.5-1.7,1c-0.5-1.1-0.4-2.4-0.8-3.6
			c-0.1-0.7,0.3-1.3,0.7-1.8c1.2-1.2,1.5-3,2.6-4.4c0-0.6,0-1.3,0.4-1.9c1.4,1.4,0.9,3.3,1.4,4.9C145.6,423,145.5,423.6,145.5,424.1
			z"/>
		<path fill="#58B7D6" d="M67.3,379.5c0,10.8,0,21.6,0.1,32.4c0,3.3-0.2,6.6,0.8,9.9c-0.2,2.1-0.1,4.2-0.5,6.2
			c-0.6,0.6-1,0.1-1.3-0.3c-0.4-0.5-0.7-1.2-0.9-1.8c-0.4-1.1-0.6-2.2-1-3.3c-0.1-0.5-0.1-1,0-1.4c0.1-0.2,0.1-0.4,0.2-0.5
			c0-11,0-22,0.1-33c0-3,0-5.9,0.1-8.9C65.6,379,66.5,379.3,67.3,379.5z"/>
		<path fill="#989797" d="M64.7,420.6c0,0.1,0,0.3,0,0.4c-0.2,0.7-0.2,1.4,0.2,2c0,1,0.4,1.9,0.7,2.8c0.4,1.6,1.4,3,2.3,4.4
			c0.8,1.4,2,2.4,3.1,3.5c1.2,1.3,2.9,2,4.4,2.8c0.5,0.3,1.2,0.4,1.5,1.1c0,0.2,0,0.4-0.2,0.5c-6.4-1.5-10.1-5.9-12-11.8
			c-0.7-2.1-0.9-4.3-0.9-6.5c0-15.4,0-30.7,0-46c0-0.7,0-1.4,0-2c0.1,0,0.2,0,0.4,0c0,0.6,0,1.2,0,1.9c0,15,0,29.9,0,44.9
			C64.4,419.2,64.1,419.9,64.7,420.6z"/>
		<path fill="#959191" d="M76.8,438c0-0.1,0-0.2,0-0.4c0.3-0.3,0.7-0.5,1-0.4c3.5,0.8,6.8-0.5,10.1-1.1c0.3-0.1,0.6-0.1,0.9-0.1
			c0.5,0,1,0,1.5,0.3c0.1,1.5-1.7,0.7-2,1.6c-1.3,0.7-2.9,0.4-4.3,0.8C81.6,438.7,79.1,439.1,76.8,438z"/>
		<path fill="#A09D9D" d="M84,438.8c1.3-0.8,2.9-0.3,4.2-1.1c1.7-0.5,3.4-1.2,5.1-1.5c1.3,0,2.7-0.5,3.9,0.4
			c-2.8,0.5-5.4,1.8-8.2,1.9c-0.4,0-0.9,0-1.2,0.4c-0.6,0-1.2,0-1.9,0C85.3,438.8,84.6,438.8,84,438.8z"/>
		<path fill="#AAA8A8" d="M101.7,436.9c0.1-0.1,0.2-0.2,0.4-0.4c0.4-0.5,1-0.5,1.5-0.5c3.4,0,6.8-0.1,10.2,0.1
			c2.5,0.3,5.1,0.5,7.4,1.6l0,0c0.3,0.4,1.7-0.2,1.1,1.1c-2.3-0.4-4.5-0.8-6.8-1.1c-4.5-0.7-9.1-0.7-13.6-0.4h-0.2h-0.2
			c-0.1-0.1-0.2-0.2-0.1-0.2C101.7,436.9,101.7,436.9,101.7,436.9z"/>
		<path fill="#ABA9A9" d="M102.1,437.3c4.5-0.6,9.1-0.9,13.6,0.4c-3.6,0.1-7.2-0.6-10.8-0.5C104,437.2,103.1,438.1,102.1,437.3z"/>
		<path fill="#AAA6A6" d="M136.1,439.2c-2.2,0.8-4.4,0.4-6.6,0.2c-2-0.1-3.9-0.6-5.9-0.6c-0.1,0-0.2,0-0.4,0
			c0.6-1.1,1.5-0.4,2.3-0.4C129,438.8,132.5,439.4,136.1,439.2z"/>
		<path fill="#A3A2A3" d="M125.5,438.4c-0.8,0.1-1.6-0.3-2.3,0.4c-0.2,0-0.5,0-0.8,0c0.1-0.8-0.9-0.6-1.1-1.1
			C122.8,437.6,124.2,437.8,125.5,438.4z"/>
		<path fill="#ABA9A9" d="M101.7,436.9c0,0.1,0,0.2,0,0.4c-1.1,0.4-2.2,0.4-3.4,0.4c-0.1,0-0.2,0-0.4,0
			C99.2,437.1,100.4,436.9,101.7,436.9z"/>
		<path fill="#85C6DD" d="M114.2,436.5c-4,0-8,0-12.1,0c-1.6,0-3.3,0-4.9,0c-1.4,0-2.8,0-4.2,0c-0.9,0.2-1.8,0.4-2.7,0
			c-0.5-0.1-1-0.1-1.5-0.2c0-0.2,0.1-0.4,0.3-0.5c0.8-0.3,1.7-0.2,2.6-0.2c1.4-0.1,2.9,0,4.3,0c0.9-0.1,1.8,0.1,2.8,0
			c4.8,0,9.6,0,14.4,0c2.1,0.1,4.2-0.1,6.2,0c1,0.1,2-0.1,3,0.2c0.2,0.1,0.3,0.3,0.3,0.5c-1.2,0-2.5,0.1-3.8,0.1
			C117.5,436.9,115.8,436.8,114.2,436.5z"/>
		<path fill="#8C8887" d="M136.1,437.7c0,0.1,0,0.2,0,0.4c-1.2,0.8-2.6,0.5-3.8,0.3c-2.8-0.4-5.7-0.4-8.3-1.8c1.6-1,3.4-0.4,5.1-0.4
			c1.8,0.6,3.6,1.1,5.4,1C135.1,437.1,135.7,437.2,136.1,437.7z"/>
		<path fill="#A3A2A3" d="M114.2,436.5c1.6,0,3.3,0,4.9,0c0.6,0.8,1.9,0,2.3,1.1C119,437.3,116.6,436.9,114.2,436.5z"/>
		<path fill="#7DC4DC" d="M129.3,436.5c-1.8,0-3.5,0-5.3,0c-0.4-0.1-0.8-0.1-1.1-0.1c0-0.1,0-0.2,0-0.2c0.9-0.8,1.9-0.5,2.9-0.5
			c1.2,0,2.4-0.2,3.6,0.2c0.2,0.1,0.4,0.3,0.4,0.5C129.7,436.6,129.5,436.7,129.3,436.5z"/>
		<path fill="#7E7B7C" d="M129.3,436.5c0.1-0.1,0.2-0.1,0.4-0.2c0.9-0.5,1.8-0.3,2.8-0.2c2.6,0.8,5.2,0.3,7.6-0.9
			c0.7-0.3,1.3-0.9,2.1-0.2c-1.7,1.5-3.8,2.2-6,2.6C133.8,437.6,131.4,437.8,129.3,436.5z"/>
		<path fill="#757374" d="M142.1,435c-1.4,0.5-2.9,1.1-4.4,1.6c-1.7,0.5-3.4,0.6-5.1-0.1c0.4-0.5,1.1-0.5,1.7-0.5
			c1.4-0.2,2.8-0.5,4.2-1c1.3-0.2,2.2-1.5,3.7-1.2c0.1,0.3,0.1,0.6-0.1,0.8C142.1,434.8,142.1,434.9,142.1,435z"/>
		<path fill="#797879" d="M142.1,434.7c0-0.2,0-0.5,0-0.8c0.1-0.7,0.3-1.1,1.1-0.9c0.4-0.2,0.7-0.4,1.1-0.7c0.4-0.1,0.5,0,0.4,0.4
			C144.2,433.7,143.3,434.4,142.1,434.7z"/>
		<path fill="#7C7D81" d="M144.8,432.8c-0.2-0.1-0.3-0.3-0.4-0.4c0.6-0.7,1.1-1.4,1.9-1.8C146.4,431.7,145.6,432.2,144.8,432.8z"/>
		<path fill="#ADE0EC" d="M101,375.4c0,2.3,0,4.5,0,6.8c-1.5,1-2,2.4-2.4,4c-0.6,0.3-1.2,0.3-1.8,0.2c-2.8-0.4-5.2,0.8-7.8,1.7
			c-1.7,0.6-1.4,2-1.4,3.2c0,0.9,0,1.7,0,2.5c0,1.2,0,2.4,0,3.7c0,1,0,2,0,3c0,0.7,0,1.3,0,2c0,0.9,0.2,1.9-0.6,2.6
			c-0.5-2.5-0.9-5.1-0.7-7.6c0.5-4.5,0.2-8.9,0.3-13.4c0.1-2.9,0-5.8,0-8.7c0-0.6-0.2-1.3,0.3-1.8c0.7,0,0.9-0.6,1-0.7
			c0,0-0.3-0.1-0.6-0.4c0.8-1.3,1.7-2.6,3.2-3.3c0.6-0.3,1.1-0.6,1.7-0.1c0.3-0.4,0.7-0.8,0.9,0.1c-0.4,0.9-1.3,0.7-2,1
			c1.8,0,3.7-0.5,5.5,0.5c0.9,0.8,2.2,0.4,3.2,1c0.1,0.1,0.2,0.3,0.3,0.4C99.2,373.7,100.5,374.4,101,375.4z"/>
		<path fill="#98D9EE" d="M87,400.7c0-1,0-2,0-3c2.5-1.6,5.3-2.2,8-3.2c7-2.5,14-5.3,21.1-7.6c0.6-0.2,1.1-0.6,1.7-0.9
			c2.1-0.5,4.1-1,6.2-0.4c0.6,0.4,1.1,0.8,1.2,1.5c-0.4,0.6-1.1,0.8-1.7,1c-11.3,4.2-22.8,8.2-34.1,12.5
			C88.6,400.8,87.8,401.3,87,400.7z"/>
		<path fill="#5DBDDD" d="M70.8,417.3c1.2-1.4,1.5-3.1,2.1-4.7c1.7-4.5,4.6-8.2,7.5-11.9c0.3-0.4,0.9-0.5,1.3-0.8
			c0.2,2.2,0.3,4.5,0.5,6.8c-3.1,3.9-5.1,8.3-6.4,13.1c-0.4,1.6-0.9,3.3-2.7,4.1c-0.3-0.1-0.5-0.2-0.7-0.5c-0.7-1.2-1.2-2.6-1.7-3.9
			C70.4,418.7,70.1,418,70.8,417.3z"/>
		<path fill="#5FBFDE" d="M143.6,419.5c-0.4,1.7-0.9,3.3-2.2,4.6c-1.7-0.7-2-2.2-2.4-3.7c-1.2-4.6-3-8.9-5.9-12.6
			c-1.4-1.8-3.1-3.3-4.7-4.8c-0.4-0.4-1.1-0.7-1-1.5c0.8-0.7,1.5-1.3,2.2-2c2.9,2.7,5.8,5.5,7.9,8.9c2,3.1,3.4,6.5,4.5,10
			C142.4,419.1,142.3,420.2,143.6,419.5z"/>
		<path fill="#94D8EE" d="M87,400.7c3.3-0.7,6.3-2.1,9.4-3.2c7.8-2.7,15.5-5.6,23.3-8.5c1.8-0.7,3.7-1.3,5.5-1.9
			c0.8,0.6,1.1,1.4,1.1,2.3c-0.1,0-0.2,0.1-0.2,0.1c-1.9-0.2-3.4,0.8-5,1.4c-6,2.1-12,4.4-18.3,6.7c1.6,0.1,3,0,4.4,0
			c1.7,0,3.3-0.1,4.9,0c1.2,0.2,2.6-0.4,3.8,0.6c-1.6,0.7-3.2,0.2-4.8,0.3c-2.7,0.1-5.4,0.1-8.1,0c-1.5-0.1-2,0.5-1.8,1.9
			c0.1,0.8,0,1.5,0,2.2c-0.2,0.1-0.4,0.1-0.5-0.1c-0.4-0.6-0.3-1.3-0.3-2.1c0.1-1.4-0.4-1.8-1.8-1.3c-2.9,1.1-5.9,2.2-8.8,3.3
			c-0.8,0.3-1.6,0.8-2.5,0.1C87,401.9,87,401.3,87,400.7z"/>
		<path fill="#5CCBF1" d="M121.4,407.8c2,0.6,3.5,1.7,4.1,3.8c-2.1-1.1-3.9-0.2-5.8,0.5c-6.2,2.3-12.4,4.6-18.6,6.8
			c-0.9,0.3-1.7,0.8-2.5,1.2c-1.3,0.1-2.3-0.7-3.2-1.4c-0.1-0.2-0.2-0.4-0.2-0.6c0.3-1,1.2-1.2,2-1.5c6.8-2.4,13.6-4.9,20.3-7.4
			c1.1-0.4,2.1-0.8,3.1-1.4C120.9,407.6,121.1,407.6,121.4,407.8z"/>
		<path fill="#53C9F1" d="M98.3,419.9c1.7-1.9,4.2-2,6.4-2.9c5.5-2.2,11.1-4.1,16.7-6.1c1.7-0.6,2.9-0.6,4.1,0.8
			c0.4,0.3,0.4,0.7,0.4,1.1c-3.6,1.4-7.2,2.5-10.7,3.9c-4.1,1.6-8.5,2.7-12.4,4.9c-0.5-0.1-1-0.1-1.5-0.1c-1-0.4-2-0.6-2.9-1.2
			C98.4,420.1,98.4,420,98.3,419.9z"/>
		<path fill="#60C0DE" d="M73.1,423.7c1.8-1.6,2.4-3.9,3-6.1c1-3.8,2.8-7,5-10.2c0.3-0.4,0.6-0.6,1.1-0.6c0.7,1.9,1.3,3.8,1.9,5.6
			c-1.9,2.2-2.8,5.1-5.1,7.1c-0.6,0.5-0.9,1.4-1,2.2c-0.1,1.4-0.4,2.8-0.8,4.2c-0.2,0.7-0.4,1.5-1.4,1.5
			C74.5,426.4,73,425.6,73.1,423.7z"/>
		<path fill="#48C8F3" d="M102.9,421.5c0-0.8,0.5-1,1.2-1.2c6.7-2.4,13.3-4.8,19.9-7.2c0.7-0.2,1.3-0.2,2.1-0.2
			c0.5,0.7,0.3,1.5,0.3,2.3c-0.9,1-2.3,1.3-3.5,1.7c-3.8,1.4-7.5,2.8-11.5,4.2c2.9,0,5.6,0,8.3,0c0.7,0,1.5-0.1,2.1,0.5
			c-0.3,0.1-0.6,0.3-0.8,0.3c-5.8,0-11.5,0-17.3,0C103.3,421.7,103.1,421.6,102.9,421.5z"/>
		<path fill="#60C0DF" d="M127.4,401.5c3.2,2.9,6.4,5.7,8.5,9.6c1.6,3,3,6.1,3.6,9.6c0.2,1.3,1.1,2.3,1.9,3.4
			c-0.2,0.5-0.8,0.8-0.8,1.5c-0.2,0.4-0.4,0.6-0.9,0.4c-1.7-3.1-3.1-6.4-4.5-9.6c-1.2-2.6-2.3-5.2-4.4-7.3c-1.3-2.5-3.2-4.5-6-6
			C125.9,402.4,126.6,401.9,127.4,401.5z"/>
		<path fill="#64C2E1" d="M75.7,427.1c1.9-1.2,1.5-3.3,1.8-5c0.2-1.5,0.7-2.8,1.9-3.7c1.5-1.1,1.8-3.1,2.9-4.5
			c0.5-0.6,1-1.3,1.8-1.6c0.8,1.2,1.5,2.5,2.2,3.8c-1.1,1.6-1.8,3.4-3.3,4.6c-1.1,0.9-1.4,2.3-1.9,3.6c-0.6,1.6-1,3.4-2.2,4.7
			c-1.4,0-2.4-0.8-3.3-1.8C75.7,427.3,75.7,427.2,75.7,427.1z"/>
		<path fill="#AADFF1" d="M104,425.6c2.5,0.5,5,0.2,7.5,0.4c0.2,0.8,0.8,1.3,1.2,2c0.6,1,1.2,2.1,0.1,3.1c-0.2,0.1-0.4,0.1-0.6,0.2
			c-3.5,0-6.9,0.2-10.4-0.1c-1.2-0.5-0.8-1.5-0.6-2.4C101.8,427.4,103.1,426.7,104,425.6z"/>
		<path fill="#40C7F4" d="M121.7,421.4c-3.9,0-7.8,0-11.7,0c-0.1-0.2-0.1-0.4-0.1-0.5c5.4-2,10.9-3.9,16.4-5.9
			C126.2,418.2,124.1,419.9,121.7,421.4z"/>
		<path fill="#79D1EE" d="M121.4,407.8c-0.3,0-0.5,0-0.8,0.1c-2.3,1-4.7,0.4-7,0.5c-1.8,0-3.6,0.1-5.3,0c-2.9-0.5-5.5,0.7-8.1,1.7
			c-2.6,0.9-5.2,1.8-7.8,2.8c-0.5,0.2-1.5,0.2-1,1.3c0.4,0.6,1,1.1,1.5,1.7c0.8,0.9,1.8,1.5,2.5,2.5l0,0c0.2,0.2,0.2,0.5,0,0.7
			c-3.2-1.6-5.3-4.1-6.5-7.5c-0.2-0.8,0.5-0.9,1-1.1c3.8-1.5,7.7-2.9,11.6-4.3c0.5-0.2,1-0.2,1.4,0.1c1.4,0.9,2.9,1.2,4.6,1.2
			c4-0.1,8-0.1,11.9,0C120.1,407.5,120.8,407.3,121.4,407.8z"/>
		<path fill="#62C1E0" d="M130.8,409c1.4,0.2,1.9,1.4,2.4,2.4c2.4,4.8,4.7,9.6,6.6,14.6c0.1,1.2-0.7,1.6-1.6,1.8
			c-0.8-0.1-1-0.7-1.2-1.3c-1.3-3.6-2.5-7.2-4.9-10.3c-0.4-0.5-0.5-1-0.2-1.6C132,412.6,131.3,410.8,130.8,409z"/>
		<path fill="#88D5EF" d="M115.8,398c-1.3,0-2.5,0-3.8,0c-0.1-1,0.7-1.3,1.3-1.6c3.9-1.5,7.8-2.9,11.7-4.2c0.4-0.2,0.8-0.2,1.3,0
			c0.2,0.2,0.2,0.3,0,0.5c-0.4,0.8-0.8,1.5-1.2,2.2c-0.4,0.6-0.9,1.1-1.5,1.6c-1.3,1.6-3.1,1.6-4.9,1.5c-0.8,0.2-1.6,0.2-2.3,0
			C116.2,398,116,398,115.8,398z"/>
		<path fill="#DAF0F6" d="M101,383.7c6,0,12,0,18,0c0.7,0,1.4-0.2,1.9,0.4c-2.6,1.2-5.2,2.4-8.3,2.1c-3.3-0.3-6.7-0.1-10-0.1
			c-0.6,0-1.2,0-1.8-0.2c-0.5-0.2-0.8-0.6-0.9-1.1C100,384.1,100.2,383.6,101,383.7z"/>
		<path fill="#85D4EE" d="M100.6,402.6c0.1,0,0.2,0,0.4,0c0.1,0.6,0.2,1.3,0.3,1.9c-0.8,1.1-2,1.2-3.1,1.6c-3.3,1.3-6.7,2.5-10,3.7
			c-0.6-0.8-0.8-1.7-0.8-2.6c0-0.1,0.1-0.2,0.1-0.3c1.8-1.4,4-1.7,6-2.5c1.5-0.7,3.2-1.1,4.8-1.8C99.1,402.2,99.9,401.9,100.6,402.6
			z"/>
		<path fill="#7FD2EE" d="M88.1,409.8c1.4-1.8,3.7-1.6,5.5-2.5c2.5-1.1,5.1-1.9,7.7-2.8c0.5,0.6,1,1.2,1.6,1.9
			c-4.4,1.6-8.8,3.2-13.3,4.8c-0.3,0.1-0.5,0.4-0.7,0.6C88.4,411.1,88.1,410.5,88.1,409.8z"/>
		<path fill="#65C3E1" d="M131.9,414.6c0,1.7,1.5,2.5,2.2,3.7c1.5,2.6,2.2,5.4,3.4,8.1c0.2,0.5,0.2,1,0.8,1.1
			c-0.2,1.3-1.1,1.8-2.3,1.6c-1.1-2.4-2.7-4.5-3.3-7.1c-0.2-0.8-0.6-1.3-1.1-1.9c-0.5-0.6-0.9-1.2-0.4-2
			C131.4,416.9,131.7,415.7,131.9,414.6z"/>
		<path fill="#69C6E2" d="M78.7,429c1-2.4,2-4.8,2.9-7.2c0,0,0-0.1,0.1-0.2c1.7-1.7,2.6-4.1,4.6-5.5c0.6,0.4,1.1,0.9,1.4,1.6
			c0.2,1.1-0.7,1.5-1.3,2.1c-2.5,2.5-3.9,5.6-4.6,9c-0.2,0.6-0.4,1.2-1,1.4c-0.5,0.2-0.9,0-1.4-0.2C79.1,429.7,78.6,429.6,78.7,429z
			"/>
		<path fill="#90D7ED" d="M87,402.6c3.8-0.8,7.4-2.5,11.1-3.9c2.5-0.9,2.5-0.9,2.5,1.6c-2.4,1.4-5.1,1.9-7.7,3
			c-0.8,0.3-1.6,0.6-2.5,0.9c-1.6,0.4-2.7,1.3-3,2.9l0,0c-0.5-0.5-0.3-1.2-0.4-1.9C87,404.3,87,403.4,87,402.6z"/>
		<path fill="#AEE0EC" d="M101,383.7c-0.5,0.2-0.8,0.6-0.7,1.2c0.2,0.6,0.7,0.7,1.2,0.7c5.1,0,10.1,0,15.2,0c0.3,0,0.8-0.1,0.8-0.2
			c0.6-2.1,2.3-0.9,3.4-1.2c1.2,0.2,2.2,0.7,3,1.5c-2.1,0.2-4.3,0.5-6.4,0.8c-0.8,0.5-1.8,0.6-2.8,0.5c-4.8-0.1-9.5,0.2-14.2-0.1
			c-0.7-0.2-1.4-0.3-1.9-0.8c-0.6-2.2-0.2-2.8,2.2-3.8C101,382.7,101,383.2,101,383.7z"/>
		<path fill="#6AC6E3" d="M131.2,418c0,0.4,0,0.9,0.3,1.2c2.4,2.5,2.7,6.2,4.5,9c0.1,0.2,0.1,0.5,0.1,0.7c0.1,0.2,0.1,0.4,0,0.5
			c-0.4,0.4-1,0.6-1.6,0.6c-0.7-0.1-1.2-0.6-1.3-1.2c-0.4-2.6-1.8-4.7-3.2-6.8c-0.2-0.3-0.3-0.6-0.4-1
			C130.1,420,130.7,419,131.2,418z"/>
		<path fill="#6EC7E4" d="M80.6,430.1c0.2-0.2,0.6-0.4,0.6-0.7c0.5-4.9,3.2-8.4,6.5-11.7c0.5,0.2,0.9,0.6,1.2,1.1
			c0.5,0.9-0.2,1.3-0.7,1.7c-3,2.4-4.8,5.4-5.1,9.2c0,0.2-0.1,0.4-0.2,0.5s-0.2,0.3-0.4,0.4c-0.2,0.1-0.5,0.2-0.8,0.1
			C81.3,430.7,80.9,430.5,80.6,430.1z"/>
		<path fill="#77CBE6" d="M89.6,419.6c0.4,0.2,0.8,0.5,1.2,0.8c0.3,0.3,0.3,0.7,0.2,1.1c-0.7,1.2-1.7,2.2-2.5,3.2
			c-1.1,1.5-2,3.1-2.4,4.9c-0.2,0.6-0.2,1.3-0.8,1.6c-1,0.1-2.1,0.7-2.8-0.7l0,0c1.2-0.7,1.3-2.1,1.8-3.2
			C85.5,424.3,87.3,421.8,89.6,419.6z"/>
		<path fill="#72C9E4" d="M89.6,419.6c-1.8,3.2-4.9,5.8-5.6,9.7c-0.2,0.9-0.7,1.3-1.6,1.2c0.4-2.5,0.8-5,2.4-7.2
			c0.8-1.1,1.8-2.1,2.8-2.9c0.5-0.4,1.1-0.9,1.2-1.6C89.2,419.1,89.4,419.3,89.6,419.6z"/>
		<path fill="#6EC8E4" d="M129.6,421c1.8,2,3.3,4.2,3.8,7c0.1,0.8,0.2,1.5,1.2,1.7c-0.5,1.3-1.6,1.1-2.6,0.9
			c-0.5-0.4-0.6-0.9-0.7-1.5c-0.3-2.1-1.1-3.9-2.5-5.5c-0.4-0.4-0.7-0.9-0.3-1.5C128.9,421.8,129.2,421.4,129.6,421z"/>
		<path fill="#89D2EA" d="M93.4,422.3c0.5,0.4,1,0.7,1.5,1.1c0.1,1.2-0.8,1.9-1.4,2.7c-1.2,1.6-2,3.1-2.5,5c-0.6,0.3-1.2,0.3-1.7,0
			c-0.7-0.8-0.5-1.6-0.3-2.5C89.8,426,91.1,423.7,93.4,422.3z"/>
		<path fill="#A5DEF0" d="M104,425.6c0.4,0.7-0.1,1-0.5,1.3c-1.5,0.9-2.1,2.2-2.1,3.9c-0.3,0.4-0.7,0.5-1.2,0.5
			c-0.6,0-1.1,0-1.5-0.4c-0.8-2.1-0.6-3,1.1-4.5c0.5-0.5,1.1-0.9,1.6-1.2C102.2,425.4,103.1,425.5,104,425.6z"/>
		<path fill="#A4DDF0" d="M113.1,430.9c0.2-1.4-0.3-2.6-1.4-3.5c-0.5-0.4-0.9-0.9-0.1-1.4c1,0,2,0,3,0c2,2.1,2.2,3.2,1,5.1
			C114.7,431.4,113.8,431.5,113.1,430.9z"/>
		<path fill="#84D0E8" d="M93.4,422.3c-0.4,1.4-1.9,2-2.6,3.3c-0.9,1.7-1.6,3.4-1.5,5.3c-0.6,0.5-1.2,0.5-1.8,0.2
			c-0.8-1-0.2-2-0.1-2.9c1.2-2.5,2.7-4.8,4.9-6.6C92.7,421.7,92.9,422.2,93.4,422.3z"/>
		<path fill="#90D6EC" d="M91.2,430.8c-0.4-1.4-0.1-2.4,0.9-3.5c1.1-1.2,1.9-2.7,2.9-4c0.5-0.1,0.8,0.2,1.2,0.4
			c0.9,0.6,0.5,1.2,0,1.7c-1.6,1.6-2.4,3.5-3.3,5.5c-0.2,0.1-0.3,0.2-0.5,0.2C91.8,431.2,91.5,431.2,91.2,430.8z"/>
		<path fill="#77CBE6" d="M126.3,424.1c0.5-0.4,1-0.8,1.5-1.1c2.1,2.3,3.1,5,3,8.1c-0.6,0.4-1.2,0.4-1.8,0
			C127.9,428.8,126.8,426.5,126.3,424.1z"/>
		<path fill="#88D2EA" d="M122.1,425.6c0.5-0.1,1-0.2,1.5-0.4c1.6,1.6,3.1,3.3,2.1,5.8c-0.7,0.3-1.3,0.2-2,0.2
			c-0.3,0-0.6-0.1-0.8-0.3c-0.5-1.5-0.5-3.2-1.2-4.7C121.5,426,121.8,425.8,122.1,425.6z"/>
		<path fill="#A0DCF0" d="M101.4,425.2c0,0.6-0.6,1.1-0.9,1.3c-1.8,1-1.8,2.6-1.7,4.3c-0.8,0.7-1.6,0.5-2.5,0.2
			c-0.9-2.6,0.9-5.6,3.6-5.9C100.4,425.2,100.9,425.2,101.4,425.2z"/>
		<path fill="#73C9E5" d="M130.8,430.8c-0.8-2.7-1.6-5.4-3-7.9c0.3-0.2,0.5-0.5,0.8-0.8c0,0.5,0.2,0.8,0.6,1.1
			c2.1,2,2.6,4.5,2.8,7.2c0.1,0.2,0.1,0.3-0.1,0.5C131.5,431.2,131.1,431.2,130.8,430.8z"/>
		<path fill="#99DAEF" d="M116.8,426c0.8,0,1.5,0,2.3,0c1.2,1.4,2.9,2.7,1.9,5c-0.7,0.4-1.4,0.4-2.2,0.2c-0.2,0-0.4-0.1-0.5-0.3
			c-0.7-1.1-0.9-2.5-1.6-3.6C116.5,426.9,116.5,426.4,116.8,426z"/>
		<path fill="#91D6ED" d="M121,430.9c0.4-2-1.5-3.2-1.9-4.9c1-0.1,2-0.2,3-0.3c-0.2,0.4-0.2,0.7,0,1.1c0.9,1.3,1.1,2.7,0.8,4.2
			C122.3,431.4,121.6,431.4,121,430.9z"/>
		<path fill="#96D8EE" d="M92.7,430.9c0.2-2.2,1.3-3.9,2.8-5.4c0.5-0.5,1.1-0.9,0.6-1.8c0.6,0.2,1.2,0.5,1.9,0.8
			c0.1,0.2,0.1,0.4,0,0.6c-1.7,1.8-2.3,4.2-3.9,6.1C93.6,431.3,93.1,431.3,92.7,430.9z"/>
		<path fill="#9BDAEF" d="M94.2,430.9c0.7-2.5,2.1-4.5,3.8-6.4c0.7,0,1.4,0.2,1.9,0.7c-2.5,1.1-3.3,3.2-3.8,5.7
			C95.5,431.4,94.8,431.4,94.2,430.9z"/>
		<path fill="#9FDCF0" d="M116.8,426c0,1.8,1.8,3,1.5,4.9c-0.9,0.7-1.8,0.7-2.7,0c0.7-1.9-0.6-3.3-1.1-4.9
			C115.3,426,116.1,426,116.8,426z"/>
		<path fill="#7DCEE7" d="M126.3,424.1c1.2,2.1,2.4,4.3,2.7,6.8c-0.4,0.4-0.9,0.4-1.5,0.2c-1.1-2-2.2-4-2.3-6.4
			C125.5,424.5,125.9,424.3,126.3,424.1z"/>
		<path fill="#83D0E9" d="M125.1,424.8c0.8,2,2,3.9,2.3,6.1c-0.5,0.4-1,0.4-1.5,0c-0.1-2.2-1.4-3.8-2.2-5.6
			C124.1,425.1,124.6,424.9,125.1,424.8z"/>
		<path fill="#7ECEE8" d="M92.3,421.5c0,0.3,0,0.8-0.2,0.9c-2.2,1.2-2.8,3.8-4.3,5.4c-0.8-1.9,1-2.9,1.6-4.3
			c0.3-0.8,0.9-1.5,1.5-2.1c0-0.4,0-0.7,0-1.1C91.3,420.7,91.8,421.1,92.3,421.5z"/>
		<path fill="#BAE4EE" d="M93.1,369.4c-0.2-0.4-0.5,0-0.8,0c0.5-1.3,1.6-0.7,2.4-0.7c1.1,0,2,0.5,2.9,1.1c0.2,0.2,0.1,0.4-0.1,0.5
			C95.9,370.5,94.5,370.1,93.1,369.4z"/>
		<path fill="#C8E9F1" d="M97.6,370.1c0-0.1,0-0.2,0-0.4c1.1,0.4,1.8,1.2,2.3,2.2c-1.2-0.1-2.5,0.3-3.4-0.8
			C96.8,370.8,98,371.3,97.6,370.1z"/>
		<path fill="#94D7E6" d="M101,375.4c-0.7-0.4-1.2-1-1.6-1.8c-0.5-0.9-0.1-1.3,0.8-1.2C100.8,373.3,100.6,374.4,101,375.4z"/>
		<path fill="#65CDF0" d="M95.3,419.1c0-0.2,0-0.5,0-0.7c1,0.5,2,1,3,1.5c0.2,0.2,0.2,0.5,0,0.7C97.3,420.3,96.2,419.9,95.3,419.1z"
			/>
		<path fill="#9EDAE8" d="M87.4,372.7c0.8,0.2,1.2-0.4,2.1-0.4c-0.7,0.6-1.3,1.4-2,2c-0.4,0.3-0.4-0.1-0.5-0.4
			C87.1,373.5,87.3,373.1,87.4,372.7z"/>
		<path fill="#5CCBF1" d="M98.3,420.6c0-0.2,0-0.5,0-0.7c1,0.5,2.2,0.6,3,1.5C100.3,421.4,99.3,420.9,98.3,420.6z"/>
		<path fill="#94D8EE" d="M126.3,392.8c0-0.1,0-0.3,0-0.4c-0.4-0.5-0.5-1.2-0.5-1.8c0-0.5,0.1-0.9,0.5-1.2l0,0
			C126.9,390.5,126.9,391.6,126.3,392.8z"/>
		<path fill="#8BD6EE" d="M123.7,396.6c0.3-0.7,0.8-1.2,1.5-1.6C125,395.9,124.4,396.3,123.7,396.6z"/>
		<path fill="#94D8EE" d="M116.4,398c0.8,0,1.6,0,2.3,0C118,398.5,117.2,398.5,116.4,398z"/>
		<path fill="#99D1EA" d="M70.8,417.3c-0.2,2.3,1.4,4,1.8,6c-1,1-0.2,2.8-1.6,3.5c-1.8-1.2-2.9-3.3-2.5-5c0.2-1.2,0.5-2.4,0.8-3.6
			c0.2-0.8,0.4-1.6,1.4-1.7C70.8,416.8,70.8,417,70.8,417.3z"/>
		<path fill="#59B8D8" d="M68.5,421.8c0.3,2,1.3,3.5,2.6,4.9c0.7,0.4,1,0.9,1.1,1.6c-0.2,1.4-0.6,2.8-0.9,4.2
			c-0.7,0.7-1.1,0-1.5-0.3c-0.8-0.6-1.4-1.4-2-2.2c-0.3-0.5-0.9-1-0.5-1.8c0.3-2.2-0.5-4.5,0.8-6.5
			C68.3,421.8,68.4,421.8,68.5,421.8z"/>
		<path fill="#5EBCDB" d="M143.3,433c-0.6,0-0.8,0.5-1.1,0.9c-1.2,0.4-2.1,1.3-3.4,1.4c-0.3-1.2-0.1-2.4,0-3.6
			c0.6-1.2,1.4-2.1,2.7-2.5c0.5-0.4,1-0.8,1.5-1.1C142.8,429.8,143.5,431.4,143.3,433z"/>
		<path fill="#9FD6EE" d="M141.4,429.3c-0.8,0.8-1.5,1.5-2.3,2.2c-0.6,0.7-1.3,1.3-2.3,0.8c-0.6-0.9-0.4-2-0.7-3.1
			c0-0.1,0-0.2,0-0.4c0.9-0.2,1.7-0.7,2.3-1.5c0.6-0.4,1.1-0.9,1.5-1.5c0.2-0.1,0.5-0.2,0.8-0.4C141.5,426.7,141.4,428,141.4,429.3z
			"/>
		<path fill="#838181" d="M67.4,428.3c0.2,0.5,0.5,1,0.7,1.5c-0.2,0.2,0,0.6-0.3,0.8c-1.2-1.3-2-2.8-2.3-4.6c-0.2-0.3,0-0.4,0.3-0.3
			C66.2,426.6,66.5,427.6,67.4,428.3z"/>
		<path fill="#878A8E" d="M65.8,425.6c-0.1,0.1-0.2,0.2-0.3,0.3c-0.7-0.9-0.8-1.9-0.8-3c-0.1-0.1-0.1-0.2-0.1-0.2
			c0.1-0.1,0.1-0.1,0.1-0.1C65.1,423.6,65.5,424.6,65.8,425.6z"/>
		<path fill="#938F8F" d="M64.8,422.5c0,0.1,0,0.2,0,0.4c-0.6-0.6-0.5-1.2-0.1-1.9C64.7,421.6,64.7,422,64.8,422.5z"/>
		<path fill="#747374" d="M67.8,430.5c0.1-0.2,0.2-0.5,0.3-0.8c1,1,1.8,2.2,3.1,2.9c1.5,0.3,2.6,1.4,4,1.9c0.8,0.3,1.5,0.6,2.3,0.7
			c0.9,0.2,1.9,0.5,2.8,0.6c0.9,0.1,1.9-0.2,2.7,0.5c-0.1,1.1-1,0.9-1.7,0.9c-3.2,0.2-6.1-0.5-8.7-2.4c-0.6-0.4-1.1-0.8-1.7-1.2
			C69.6,433,68.4,431.9,67.8,430.5z"/>
		<path fill="#838181" d="M70.8,433.9c1.9,0.7,3.4,2.2,5.3,2.6c2.2,0.6,4.5,0.6,6.8,0c1.8-0.8,3.5-0.8,5.3,0
			c-3.7,1.2-7.4,2-11.3,1.1C74.8,436.4,72.3,435.9,70.8,433.9z"/>
		<path fill="#78C3DC" d="M88.2,436.5c-1.8,0-3.5,0-5.3,0c-1-0.1-2-0.1-3-0.1c0.2-0.8,0.8-0.7,1.3-0.8c1.7-0.1,3.3-0.1,5,0
			c0.9,0,1.9-0.2,2.6,0.6c0,0.1,0,0.1,0,0.2C88.7,436.4,88.4,436.5,88.2,436.5z"/>
		<path fill="#949292" d="M90.4,436.5c0.9,0,1.8,0,2.7,0c-1.6,0.5-3.2,1.2-4.9,1.1C88.5,436.5,89.9,437.3,90.4,436.5z"/>
		<path fill="#9DD8ED" d="M113.5,436.1c-4.9,0-9.8,0-14.7,0c-1.2-0.9-2.5-1.2-4-1c-1-0.1-2.2,0.2-3.1-0.4c-0.1-0.2-0.1-0.4,0.1-0.6
			c1.2-0.7,2.5-0.3,3.8-0.4c2.3,0,4.7,0,7.1,0c3.1,0,6.2-0.1,9.3,0c2,0,4-0.1,5.9,0c0.7,0.1,1.4,0,2,0.4c0.2,0.2,0.2,0.3,0.2,0.6
			c-0.3,0.4-0.8,0.5-1.2,0.4C116.9,434.9,115.2,435.6,113.5,436.1z"/>
		<path fill="#88D0E8" d="M125.9,436.1c-1,0-2,0-3,0c-1,0-2,0-3,0c-0.5-1,0.3-1.3,0.9-1.8c1.1-0.3,2.2-0.2,3.2-0.2
			c0.8,0,1.5-0.1,2.2,0.3C126.8,435.1,126.4,435.6,125.9,436.1z"/>
		<path fill="#81CCE6" d="M88.9,436.1c-0.9,0-1.8,0-2.6,0c-0.4-1.1-2.1-0.6-2.2-2c0.2-0.2,0.5-0.3,0.8-0.3c0.6-0.1,1.2,0,1.8,0.1
			c1,0.3,2,0.2,3,0.2c0.5,0,1.1,0,1.5,0.3c0.3,0.5,0.9,1,0.4,1.7C90.7,436.1,89.8,436.1,88.9,436.1z"/>
		<path fill="#94D5EC" d="M120.6,434.6c-0.2,0.5-0.8,0.9-0.8,1.5c-2.1,0-4.3,0-6.4,0c1.8-1.9,4.2-1.5,6.4-1.5
			C120.1,434.4,120.4,434.4,120.6,434.6z"/>
		<path fill="#8ECEE4" d="M91.5,436.1c-0.1-0.5-0.2-1-0.4-1.5c0.1-0.1,0.2-0.1,0.4,0c1.1,0,2.3,0,3.4,0c0.5,0.4,1.4,0.5,1.1,1.5
			C94.6,436.1,93.1,436.1,91.5,436.1z"/>
		<path fill="#97D1E5" d="M96.1,436.1c-0.4-0.5-0.8-1-1.1-1.5c1.5-0.1,3-0.1,3.8,1.5C97.8,436.1,97,436.1,96.1,436.1z"/>
		<path fill="#74C7E3" d="M125.9,436.1c0.1-0.5,0.2-1,0.4-1.5c1.2-1,2.7-0.2,3.9-0.7c0.7-0.1,1.4-0.3,2.2-0.3c0.4,0,0.7,0.1,0.8,0.4
			c-0.1,2.4-0.3,2.6-3.6,2.1C128.4,436.1,127.2,436.1,125.9,436.1z"/>
		<path fill="#6EC0DC" d="M129.7,436.2c0.1,0,0.1,0,0.2,0c1.8,0.3,3.1-0.2,3.2-2.2c0.4-0.6,0.9-0.8,1.6-0.5c0.7,1,0.7,2-0.1,3
			c-0.6,0-1.2,0.1-1.9,0.1c-1-0.1-2-0.1-3-0.2C129.7,436.3,129.7,436.2,129.7,436.2z"/>
		<path fill="#63BEDD" d="M134.6,436.4c0-0.9,0-1.9,0-2.9c0.6-0.7,1.2-1.3,2.2-1.2c0.8-0.2,1.5-0.5,2.2-0.8
			c-0.1,1.2,0.3,2.6-0.4,3.8C137.4,436,136,436.2,134.6,436.4z"/>
		<path fill="#9FDBED" d="M115,386.3c0.9,0,1.8,0,2.7,0c-1.2,1.6-3.1,1.5-4.7,2.1c-8,3.1-16.2,5.9-24.2,8.9
			c-0.5,0.2-1.1,0.2-1.6,0.4c0-1.2,0-2.5,0-3.8c1.6-1.2,3.6-1.5,5.3-2.2c4.2-1.6,8.5-3,12.7-4.7c1.4-0.6,2.8-0.4,4.3-0.5
			C111.2,386.4,113.1,386.8,115,386.3z"/>
		<path fill="#A5DDED" d="M115,386.3c-1.1,0.8-2.3,0.5-3.5,0.3c-4.1-0.6-7.5,1.5-11.2,2.6c-4.4,1.5-8.7,3.5-13.3,4.6
			c0-0.9,0-1.8,0-2.6c2.2-1.8,5-2.2,7.5-3.2c1.8-0.7,3.6-1.8,5.7-1.8C105.1,386.3,110,386.3,115,386.3z"/>
		<path fill="#A8DEED" d="M100.2,386.3c-4.3,1.9-8.8,3.4-13.2,4.9c-0.3-2.1,0.5-3.1,2.7-3.9c3-1.1,6-1.5,9.1-1.4
			C99.2,386,99.8,385.8,100.2,386.3z"/>
		<path fill="#E8F6F9" d="M97.6,370.1c0.3,0.4,0.6,0.9,1,1.5c-0.9-0.1-1.5-0.2-2.2-0.3c-2.1-0.7-4.2-0.4-6.4-0.1
			c0.7-0.9,0.7-0.9,3-1.8C94.6,369.2,96.1,370,97.6,370.1z"/>
		<path fill="#9CD3EB" d="M71.9,428.2c-0.2-0.5-0.8-0.8-0.8-1.5c0.2-1,0.5-1.9,0.7-2.9c0.1-0.5,0.2-0.8,0.8-0.5
			c0.1,0.1,0.2,0.2,0.4,0.4c0.5,1.4,1.9,2.2,2.7,3.4h-0.1c0,1.2,0.4,2.4-0.1,3.6c-1.1,0.8-1.7-0.1-2.3-0.7
			C72.6,429.5,72.3,428.8,71.9,428.2z"/>
		<path fill="#90D7ED" d="M126.3,389.4c0,0.4,0,0.8,0,1.1c-0.6,0.7-1.5,0.9-2.3,1.2c-5.8,2.1-11.6,4.2-17.3,6.3c-1.6,0-3.2,0-5,0
			c0.3-1,1.1-1.1,1.7-1.3c7-2.6,14-5.1,21-7.6C125,388.8,125.7,388.4,126.3,389.4z"/>
		<path fill="#8BD6EE" d="M106.7,398c0.5-1.1,1.6-1.1,2.5-1.4c5.7-2.1,11.4-4.1,17.1-6.1c0,0.6,0,1.2,0,1.9
			c-4.2,1.5-8.3,2.9-12.5,4.4c-0.7,0.2-1.4,0.5-1.8,1.2C110.2,398,108.4,398,106.7,398z"/>
		<path fill="#8BD6EE" d="M87.4,407.1c-0.3-1.7,0.3-2.5,2.1-3c3.2-1,6.3-2.3,9.5-3.5c0.6-0.2,1.1-0.2,1.7-0.2c0,0.8,0,1.5,0,2.3
			c-1.5-0.1-2.8,0.7-4.1,1.2C93.5,404.8,90.5,405.9,87.4,407.1z"/>
		<path fill="#65CDF0" d="M113.4,407.8c2.4,0,4.8,0,7.2,0c-1.4,1.8-3.8,1.9-5.7,2.6c-5.9,2.3-11.9,4.3-17.8,6.5
			c-0.7,0.2-1.7,0.4-1.8,1.4c-1.1-0.5-2-1.2-2.7-2.3c0.6-1.2,1.8-1.4,2.9-1.8C101.6,412.2,107.5,410.1,113.4,407.8z"/>
		<path fill="#A0D6EE" d="M75.3,430.9c0.2-1.2-0.4-2.6,0.3-3.8c1,0.6,2,1.2,3.1,1.9c0.2,0.2,0.5,0.5,0.8,0.8c-0.1,1.1-0.3,2.2-1,3.1
			c-0.8,0.3-1.4-0.2-2.1-0.5C76,431.8,75.2,431.7,75.3,430.9z"/>
		<path fill="#C4E9F9" d="M100.2,430.9c0.4,0,0.8,0,1.1,0c3.8,0,7.5,0,11.3,0c0.1,0.2,0.1,0.4-0.2,0.6c-1.7,0.7-3.5,0.4-5.2,0.3
			c-2.3,0-4.6,0.4-6.9-0.3C100.2,431.3,100.1,431.1,100.2,430.9z"/>
		<path fill="#C0E7F8" d="M112.7,431.2c0-0.1,0-0.2,0-0.4c0.1,0,0.2,0,0.4,0c0.9,0,1.8,0,2.7,0c0.9,0,1.8,0,2.7,0c0.1,0,0.2,0,0.4,0
			c0.1,0.2,0.1,0.4-0.2,0.6c-1.2,0.6-2.4,0.3-3.7,0.3C114.1,431.7,113.3,431.9,112.7,431.2z"/>
		<path fill="#6DCEF0" d="M113.4,407.8c-0.9,1.4-2.5,1.4-3.8,1.9c-5.6,2.2-11.4,3.9-16.9,6.4c-0.7-0.4-1.2-0.9-1.5-1.5
			c0.3-1.1,1.3-1.2,2.2-1.5c4.8-1.8,9.6-3.5,14.4-5.2C109.7,407.8,111.6,407.8,113.4,407.8z"/>
		<path fill="#73D0EF" d="M107.8,407.8c-1.2,1.5-3.2,1.6-4.8,2.2c-3.3,1.4-6.8,2.5-10.2,3.7c-0.6,0.2-1.1,0.6-1.6,0.9
			c-1.2-0.8-1.3-1.4,0.3-1.9c4.2-1.5,8.3-3,12.5-4.6C105.2,407.6,106.5,407.9,107.8,407.8z"/>
		<path fill="#A5DAF0" d="M78.3,432.7c0.4-1,0.2-2.2,1.2-3c0.4,0.1,0.8,0.2,1.1,0.4c0.4,0.1,0.8,0.3,1.1,0.4c0.8,1,0.6,2.1,0.3,3.2
			c-0.5,0.7-1.1,0.4-1.7,0.3C79.6,433.6,78.7,433.6,78.3,432.7z"/>
		<path fill="#A5DAF1" d="M136.8,432.4c-0.7,0.4-1.4,1-2.2,1.2c-0.5,0.1-1,0.2-1.5,0.4c-0.2,0-0.5,0-0.8,0c-0.8-0.9-0.2-2-0.4-3
			c0-0.1,0-0.2,0-0.4c0.9-0.1,1.8-0.2,2.6-0.8c0.5-0.1,1-0.2,1.5-0.4C137.6,430,136.5,431.4,136.8,432.4z"/>
		<path fill="#AADCF1" d="M81.7,433.9c0-1.1,0-2.2,0-3.4c0.2,0,0.5,0,0.8,0c0.9,0.8,2,0.2,3,0.4c0.6-0.5,1.2-0.5,1.9,0
			c0.6,0,1.2,0,1.9,0s1.2,0,1.9,0c0.4,0,0.8,0,1.1,0c-0.1,0.9-0.9,0.8-1.5,0.9c-0.6,0-1.3,0-1.9,0c-0.8,0-1.6,0-2.4,0
			c-1.1-0.1-1.8,0.2-1.5,1.5c0.1,0.4,0,0.8-0.3,1c-0.2,0-0.5,0-0.8,0C83.1,434.9,82.4,434.6,81.7,433.9z"/>
		<path fill="#7ECDE7" d="M87.4,430.8c-0.6,0-1.2,0-1.9,0c-0.1-2.6,1.2-4.7,2.7-6.6c0.8-1,1.4-2.2,2.6-2.9c-0.7,1.4-1.4,2.9-2.2,4.2
			c-0.4,0.7-0.9,1.3-0.8,2.2C87.7,428.8,87.5,429.8,87.4,430.8z"/>
		<path fill="#BDE6F7" d="M90.8,431.2c0.5-0.1,1.1,0.2,1.5-0.4c0.1,0,0.2,0,0.4,0c0.5,0,1,0,1.5,0c0.6,0,1.2,0,1.9,0
			c0.9,0,1.8,0,2.7,0c0.5,0,1,0,1.5,0c0,0.1,0,0.2,0,0.4c-0.2,0.2-0.4,0.3-0.7,0.4c-1,0.1-1.9,0.1-2.9,0.1c-1.2,0-2,0.2-1.2,1.6
			c0.2,0.3,0.2,0.6,0,0.9c-1.2,0-2.5,0-3.8,0c-0.1-0.1-0.2-0.1-0.2-0.1C90.8,433.2,90.1,432.3,90.8,431.2z"/>
		<path fill="#ACDEF2" d="M131.9,430.8c0.8,0.1,0.6,0.5,0.5,1c-0.2,0.6-0.1,1.3-0.1,2c-0.5,0.6-1.2,0.3-1.9,0.4
			c-0.6,0.3-1.2,0.1-1.8,0.1c-0.1-0.1-0.1-0.1-0.1-0.1c-0.7-2.5-0.7-2.5-3.3-2.5c-0.5,0-1-0.1-1.4-0.3c-0.2-0.1-0.2-0.3-0.1-0.5
			c0.8,0,1.5,0,2.3,0c0.5,0,1,0,1.5,0s1,0,1.5,0c0.6,0,1.2,0,1.9,0C131.2,430.8,131.5,430.8,131.9,430.8z"/>
		<path fill="#B3E1F5" d="M123.6,430.9c0,0.1,0,0.2,0,0.4c-0.5,0.5-1.2,0.5-1.8,0.5c-0.8,0-1.5,0-2.2-0.1c-0.3,0-0.6-0.2-0.8-0.4
			c0-0.1,0-0.2,0-0.4c0.8,0,1.5,0,2.3,0c0.6,0,1.2,0,1.9,0C123.1,430.9,123.4,430.9,123.6,430.9z"/>
		<path fill="#5EBBDB" d="M75.3,430.9c0.4,0.4,0.8,0.7,1.2,1.1c0.7,1.2,1.2,2.4,0.8,3.7c-2.3-0.5-4.3-1.5-6-3
			c-0.3-1.6,0.4-3,0.8-4.5C73.2,429,73.9,430.4,75.3,430.9z"/>
		<path fill="#65BFDD" d="M77.2,435.7c-0.2-1.2-0.8-2.4-0.8-3.7c0.6,0.2,1.2,0.5,1.9,0.8c0.6,0.3,1.2,0.5,1.9,0.8
			c0.9,0.7,1.2,1.5,0.8,2.6c-0.4,0-0.8-0.1-1.1,0.3C79,436.2,78.1,435.9,77.2,435.7z"/>
		<path fill="#6CC4E1" d="M81,436.1c-0.2-0.9-0.5-1.7-0.8-2.6c0.5,0.1,1,0.2,1.5,0.4c0.8,0.1,1.5,0.3,2.2,0.4c0.7,0.7,2.5,0,2.3,1.9
			C84.5,436.1,82.8,436.1,81,436.1z"/>
		<path fill="#CAEBFB" d="M99.5,431.2c0.2,0,0.5,0,0.8,0c4.2,0,8.3,0,12.4,0c0.8,0,1.5,0,2.3,0c0.5,0.9-0.2,1.3-0.8,1.8
			c-0.7,0.5-1.6,0.7-2.2,1.2c-3.2,0-6.3,0-9.4,0C101.2,433.5,99.7,433.1,99.5,431.2z"/>
		<path fill="#C4E9F9" d="M99.5,431.2c0.7,1.3,2.1,1.9,3,3c-2.4,0-4.8,0-7.2,0c-1.6-3-1.6-3,1.9-3C98,431.2,98.7,431.2,99.5,431.2z"
			/>
		<path fill="#C4E9F9" d="M111.9,434.3c0.1-0.9,0.8-0.9,1.4-1.2c0.7-0.4,1.6-0.7,1.6-1.8c1.2,0,2.5,0,3.8,0c0.2,0,0.5,0,0.8,0
			c0.2,1.3-0.5,2.2-1.5,3C116,434.2,113.9,434.3,111.9,434.3z"/>
		<path fill="#C0E7F8" d="M118,434.2c0.5-1,1-2,1.5-3c0.8,0,1.5,0,2.3,0c0.7,1.1,0.3,2.1-0.3,3.1c-0.5,0.2-1.1,0.2-1.6,0
			C119.2,434.3,118.6,434.3,118,434.2z"/>
		<path fill="#9AD8EE" d="M119.9,434.3c0.5,0,1,0,1.5,0c0.8-0.6,1.7-0.6,2.5-0.2c0.2,0.1,0.2,0.4,0.1,0.6c-1.1,0-2.2,0-3.4,0
			c-0.2,0-0.5,0-0.8,0C119.9,434.5,119.9,434.4,119.9,434.3z"/>
		<path fill="#97D1E5" d="M91.6,434.6c-0.1,0-0.2,0-0.4,0c-0.5,0-1,0-1.5,0c-0.1-0.2-0.1-0.4,0.1-0.6c0.6-0.3,1.2-0.3,1.8,0.2v0
			C91.6,434.4,91.6,434.5,91.6,434.6z"/>
		<path fill="#89D0E8" d="M124,434.6c0-0.1,0-0.2,0-0.4c0.2-0.3,0.6-0.4,0.9-0.5c1.2,0,2.5-0.4,3.6,0.5c0.6,0,1.2,0,1.9,0
			c-1.3,0.8-2.8,0.2-4.2,0.4C125.5,434.6,124.8,434.6,124,434.6z"/>
		<path fill="#AFDEF2" d="M84.8,434.2c0-0.3,0-0.7-0.1-0.9c-0.7-1.7-0.1-2.3,1.6-2.1c1.1,0.8,0.9,1.9,0.9,2.9
			c-0.1,0.2-0.3,0.2-0.5,0.1C86,434.3,85.4,434.3,84.8,434.2z"/>
		<path fill="#8ECEE4" d="M86.6,434.3c0.1,0,0.2,0,0.4,0c0.6-0.6,1.4-0.5,2.1-0.4c0.2,0.1,0.4,0.2,0.5,0.4c0,0.1,0,0.2,0,0.4
			C88.7,434.5,87.6,435,86.6,434.3z"/>
		<path fill="#B4E0F4" d="M89.3,434.2c-0.8,0-1.5,0-2.3,0c-0.7-0.9-0.1-2.1-0.8-3c0.9,0,1.7,0,2.6,0
			C89.5,432.2,89.9,433.1,89.3,434.2z"/>
		<path fill="#B8E3F6" d="M89.3,434.2c0-1-0.6-2-0.4-3c0.6,0,1.2,0,1.9,0c0,1.1,0.6,2,0.8,3c-0.6,0-1.2,0-1.9,0
			C89.5,434.3,89.4,434.3,89.3,434.2z"/>
		<path fill="#B3E1F5" d="M128.5,434.2c-1.3,0-2.5,0-3.8,0c-0.6-1.1-0.2-2.1,0.4-3c0.4,0,0.8,0,1.1,0
			C129.3,431.2,129.3,431.3,128.5,434.2z"/>
		<path fill="#BAE5F8" d="M125.1,431.2c0.2,1-0.3,2-0.4,3c-0.2,0-0.5,0-0.8,0c-0.9,0-1.8,0-2.7,0c0.1-1,0.2-2,0.4-3
			c0.6,0,1.2,0,1.9,0C124.1,431.2,124.6,431.2,125.1,431.2z"/>
	</g>
</g>
</svg>
