<?xml version="1.0" encoding="utf-8"?>
<!-- Generator: Adobe Illustrator 18.1.1, SVG Export Plug-In . SVG Version: 6.00 Build 0)  -->
<svg version="1.1" id="Layer_1" xmlns="http://www.w3.org/2000/svg" xmlns:xlink="http://www.w3.org/1999/xlink" x="0px" y="0px"
	 width="103.1px" height="97.7px" viewBox="55.7 347.9 103.1 97.7" enable-background="new 55.7 347.9 103.1 97.7"
	 xml:space="preserve">
<g id="_x32_rVgLR_1_">
	<g>
		<path fill="#E32F28" d="M55.7,362.2c0-0.1,0-0.3,0-0.4c0.8-4.1,3-7.3,6.1-9.9c2.3-2,5-3.3,8-3.8c0.3-0.1,0.7,0,1.1-0.1
			c0.1,0,0.2,0,0.3,0c0.4,0,0.9,0,1.3,0c0.4,0,0.8,0,1.2,0c0.5,0,0.9,0,1.4,0c0.7,0,1.3,0,2,0c0.9,0,1.8,0,2.6,0c1.5,0,3,0,4.4,0
			c2,0,4.1,0,6.1,0c6.9,0,13.8,0,20.7,0c3.2,0,6.3,0,9.5,0c1.7,0,3.4,0,5.1,0s3.3,0,5,0c0.9,0,1.8,0,2.6,0c0.7,0,1.3,0,2,0
			c0.6,0,1.2,0,1.8,0c0.6-0.1,1.3,0.1,1.9-0.1c0.1,0,0.3,0,0.4,0c1.2,0.2,2.4,0,3.7,0.1c0.2,0,0.4,0,0.7,0c0.4,0.1,0.9,0.1,1.2,0.1
			c4.6,1,8.2,3.5,10.9,7.2c0.6,0.8,1.2,1.7,1.6,2.7c0.2,0.5,0.4,1-0.3,1.3c-0.7,0.2-1.4,0.1-2.1,0.1c-31.7,0-63.4,0-95.1,0
			c-2.5,0-2.5-0.4-3.2,2.4c-0.1,0.4-0.2,0.7-0.5,1C55.5,363,55.9,362.3,55.7,362.2z"/>
		<path fill="#C22227" d="M75.2,445.6c-0.7,0-1.3,0-2,0c-0.8-0.2-1.7-0.1-2.5-0.2c-5.5-0.6-9.5-3.5-12.5-8c-0.3-0.4-0.4-0.8-0.1-1.3
			c0.4-0.4,0.8-0.5,1.3-0.5c0.5,0,1,0,1.5,0c31,0,62.1,0,93.1,0c0.8,0,1.6,0,2.3,0.1c0.8,0.5,0.2,1,0,1.4c-0.9,1.6-2.1,2.9-3.4,4.1
			c-3,2.5-6.3,4.4-10.4,4.2c-2.1-0.1-4.1,0-6.2,0c-0.3,0-0.7-0.1-1,0.1c-0.8,0-1.6,0-2.4,0c-0.5-0.2-1,0-1.5-0.1c-0.5,0-1,0-1.6,0
			c-0.5,0-1.1,0-1.6,0c-0.5,0-0.9,0-1.4,0c-0.6,0-1.1,0-1.7,0c-0.9,0-1.8,0-2.6,0c-1.5,0-2.9,0-4.4,0c-1.8,0-3.7,0-5.5,0
			c-7.8,0-15.6,0-23.3,0c-2.2,0-4.4,0-6.6,0c-1,0-2,0-3,0c-0.6,0-1.1,0-1.6,0s-1.1,0-1.6,0C76.1,445.5,75.7,445.4,75.2,445.6z"/>
		<path fill="#E22E27" d="M55.9,362.8c0.2-0.9,0.5-1.7,0.8-2.6c0.2-0.9,0.7-1.3,1.7-1.3c9.7,0.1,19.3,0,29,0c23.3,0,46.7,0,70.1,0
			c0.9,0.2,0.8,1.1,1.1,1.7c0.1,0.4,0.1,0.9,0.3,1.3c0,0.1,0,0.1,0,0.2c-0.2,0.5-0.1,0.9-0.1,1.4c-0.1,0.7,0.2,1.4-0.1,2
			c-0.2,0.2-0.5,0.3-0.9,0.3c-0.2,0-0.5,0-0.7,0c-33.1,0-66.3,0-99.4,0c-0.5,0-1.2,0.1-1.6-0.3C55.7,364.7,55.7,363.8,55.9,362.8z"
			/>
		<path fill="#C72227" d="M55.7,430c0-0.3,0-0.7,0-1c0.2-0.4,0-0.9,0.1-1.3c0-0.4,0-0.8,0-1.2c0-0.5,0-1,0-1.6c0-0.6,0-1.2,0-1.8
			c0-0.9,0.6-1.2,1.5-1.2c6.9,0,13.9,0,20.9,0c0.4,0,0.8,0.1,1,0.2c-1-0.1-1.8-0.7-2.4-1.6c-0.3-0.5-0.8-0.9-1.2-1.3
			c-0.5-0.6-0.8-1.2-0.4-2c0.2-0.2,0.4-0.3,0.6-0.1c0.6,0.5,1,1.2,1.6,1.8c0.7,0.6,1.5,1,2.3,1.4c0.3,0.2,0.5,0.4,0.9,0.4
			c0.1,0,0.2,0,0.2,0.1c0.3,0.1,0.6,0.1,0.9,0.2c0.3,0.1,0.6,0.1,0.8,0.2c0.5,0.2,1.1,0.1,1.6,0.2c1.2,0.2,2.5,0.3,3.7,0.3
			c3.7,0.1,7.3,0.2,11,0.3c5.2,0.2,10.3,0.2,15.5,0.1c3,0,6-0.1,8.9-0.2c2.6-0.1,5.3-0.1,7.9-0.4c1.5-0.1,3-0.2,4.4-0.8
			c2.5-1,4.1-2.9,5.1-5.3c0.8-2,1.1-4,1.2-6.1c0.1-1.2,0.2-2.4,0.2-3.6c0-0.2,0-0.5,0.1-0.7c0.3-1.1,0.1-2.3,0.1-3.5
			c0-2.1,0-4.2,0-6.4c0-0.4-0.1-0.8,0.2-1.2c0.1-0.1,0.2-0.1,0.4-0.1c0.4,0.5,0.2,1.1,0.2,1.6c0,0.9,0,1.8,0,2.7c0,0.7,0,1.3,0,2
			c0,0.1,0,0.2,0,0.3c0,0.5,0,1.1,0,1.6c0,0.1,0,0.2,0,0.3c0,0.8,0,1.7,0,2.5c0,0.2,0,0.4-0.1,0.5c-0.3,1-0.1,2-0.2,3
			c0.1,1.1-0.1,2.1-0.2,3.2c-0.5,1.1-0.5,2.4-0.9,3.5c-0.5,1.7-1.1,3.3-2.4,4.6c-0.7,0.7-1,1.9-2.4,2.1c6.9,0,13.7,0,20.5,0
			c0.5,0,0.9,0,1.3,0.4c0.1,0.6,0,1.2,0.1,1.8c0,0.5,0,1,0,1.4s0,0.9,0,1.4c0,0.4,0.1,0.7-0.1,1.1c-0.1,0.1-0.2,0.2-0.3,0.2
			c-0.7,0.2-1.4,0.1-2.1,0.1c-32.4,0-64.7,0-97.1,0c-0.8,0-1.6-0.3-2.3,0.2c-0.7,0.5-0.2,1.4-0.4,2.1c0,0.2-0.1,0.4-0.2,0.5
			c-0.2,0.2-0.4,0.2-0.5-0.1C55.7,430.8,55.9,430.4,55.7,430z"/>
		<path fill="#AD3D30" d="M89.4,445.4c7.8,0,15.6,0,23.4,0c0.1,0.1,0.1,0.1,0,0.2c-7.8,0-15.6,0-23.4,0
			C89.2,445.5,89.2,445.4,89.4,445.4z"/>
		<path fill="#E17357" d="M158.8,378c0,7.4,0,14.8,0,22.2c-0.1,0-0.2,0-0.3-0.1c-0.5-0.8-0.2-1.6-0.2-2.4c-0.1-2.8-0.1-5.6,0-8.4
			c-0.1-2.2-0.1-4.4,0-6.6c-0.1-1.2-0.1-2.4-0.1-3.6c0-0.4,0-0.7,0.3-1C158.5,377.9,158.6,377.9,158.8,378z"/>
		<path fill="#EF836C" d="M110.9,348.1c-6.9,0-13.8,0-20.8,0c-0.1,0-0.1-0.1-0.1-0.1c0,0,0,0,0.1,0c6.9,0,13.8,0,20.8,0
			C111,347.9,111,348,110.9,348.1C111,348.1,111,348.1,110.9,348.1z"/>
		<path fill="#DB7158" d="M158.6,400.2c0.1,0,0.1,0,0.2,0c0,5.6,0,11.2,0,16.8c-0.1,0.1-0.2,0.1-0.3-0.1c-0.4-0.5-0.2-1-0.2-1.5
			c-0.1-2-0.1-4.1,0-6.1c-0.1-1.7-0.1-3.4,0-5.1c-0.1-0.9-0.1-1.9-0.1-2.9C158.1,400.9,158.2,400.4,158.6,400.2z"/>
		<path fill="#DA6C53" d="M55.7,415.5c0-4.9,0-9.7,0-14.5c0.1,0,0.2,0,0.3,0.1c0.4,0.5,0.2,1.1,0.2,1.6c0.1,2.6,0.1,5.2,0,7.9
			c0.1,1.5,0.1,3,0,4.6c0,0.1-0.1,0.2-0.2,0.3C55.9,415.5,55.8,415.6,55.7,415.5z"/>
		<path fill="#E67658" d="M158.8,378L158.8,378h-0.1c-0.4-0.3-0.4-0.7-0.4-1.1c0-1-0.1-1.9,0.1-2.9c-0.1-2.5-0.1-5-0.1-7.5
			c0-0.4,0.1-0.7,0.4-1c0-0.7,0.1-1.3,0.1-2c0.1-0.1,0.1-0.1,0.2,0C158.8,368.3,158.8,373.1,158.8,378z"/>
		<path fill="#EF8972" d="M110.9,348.1c0,0,0-0.1,0-0.2c3.2,0,6.3,0,9.5,0c0.1,0,0.1,0.1,0.1,0.1c0,0-0.1,0-0.1,0
			C117.3,348.1,114.1,348.1,110.9,348.1z"/>
		<path fill="#E4563B" d="M55.9,362.8c0,0.9,0,1.8,0,2.6c0.2,0.2,0.4,0.4,0.4,0.6c0,1.7,0.1,3.4-0.1,5.1c0,0.1-0.1,0.2-0.2,0.2
			c-0.1,0.1-0.2,0.2-0.3,0.1c0-3.1,0-6.2,0-9.3C55.9,362.4,55.9,362.6,55.9,362.8z"/>
		<path fill="#E06045" d="M55.7,388.3c0-2.9,0-5.8,0-8.7c0.1,0,0.2,0,0.3,0.1c0.5,1,0.2,2,0.2,3c0.1,1.5,0,3,0,4.6
			c0,0.4,0,0.7-0.3,0.9C55.9,388.3,55.8,388.3,55.7,388.3z"/>
		<path fill="#E15A3F" d="M55.8,379.6c0,0-0.1,0-0.2,0c0-2.7,0-5.4,0-8.1c0,0,0.1,0,0.2,0c0.8,0.8,0.4,1.8,0.4,2.6
			c0.1,1.5,0,2.9,0,4.4C56.3,378.9,56.2,379.3,55.8,379.6z"/>
		<path fill="#D76E56" d="M55.7,415.5c0,0,0.1,0,0.2,0c0.3,0.2,0.4,0.5,0.4,0.8c0.1,1.7,0,3.5,0,5.2c0,0.3-0.1,0.5-0.3,0.7
			c-0.1,0.1-0.2,0.2-0.3,0.1C55.7,420.1,55.7,417.8,55.7,415.5z"/>
		<path fill="#B14636" d="M89.4,445.4c0,0.1,0,0.1,0,0.2c-2.2,0-4.4,0-6.7,0c-0.1,0-0.1-0.1,0-0.2C84.9,445.4,87.1,445.4,89.4,445.4
			z"/>
		<path fill="#DE654A" d="M55.7,388.3c0,0,0.1,0,0.2,0c0.4,0.2,0.4,0.6,0.4,1c0.2,1.5,0,3,0.1,4.5c0,0.3-0.1,0.6-0.2,0.9
			c-0.1,0.1-0.2,0.1-0.3,0.1C55.7,392.6,55.7,390.4,55.7,388.3z"/>
		<path fill="#DD694F" d="M55.7,394.7c0,0,0.1,0,0.2,0c0.5,0.4,0.4,0.9,0.4,1.5c0.1,1.2,0,2.5,0,3.8c0,0.4,0,0.8-0.4,1
			c0,0-0.1,0-0.2,0C55.7,398.9,55.7,396.8,55.7,394.7z"/>
		<path fill="#EF8872" d="M90.2,347.9c0,0,0,0.1,0,0.2c-2,0-4,0-6.1,0C84,348,84,348,84,348c0,0,0,0,0.1,0
			C86.1,347.9,88.1,347.9,90.2,347.9z"/>
		<path fill="#B04334" d="M112.8,445.6c0-0.1,0-0.1,0-0.2c1.8,0,3.6,0,5.5,0c0.1,0.1,0.1,0.1,0,0.2
			C116.4,445.6,114.6,445.6,112.8,445.6z"/>
		<path fill="#F08F78" d="M120.4,348.1c0,0,0-0.1,0-0.2c1.7,0,3.4,0,5.1,0c0.1,0,0.1,0.1,0.1,0.1c0,0-0.1,0-0.1,0
			C123.8,348.1,122.1,348.1,120.4,348.1z"/>
		<path fill="#F19680" d="M125.5,348.1c0,0,0-0.1,0-0.2c1.7,0,3.3,0,5.1,0c0.1,0,0.1,0.1,0.1,0.1c0,0-0.1,0-0.1,0
			C128.8,348.1,127.2,348.1,125.5,348.1z"/>
		<path fill="#DA785F" d="M158.6,416.9c0.1,0,0.1,0,0.2,0c0,1.6,0,3.1,0,4.6c-0.2,0.1-0.2,0-0.4-0.1
			C158.1,419.9,157.8,418.4,158.6,416.9z"/>
		<path fill="#F0917A" d="M84.1,347.9c0,0,0,0.1,0,0.2c-1.5,0-2.9,0-4.4,0c-0.1,0-0.1-0.1-0.1-0.1c0,0,0.1,0,0.1,0
			C81.1,347.9,82.6,347.9,84.1,347.9z"/>
		<path fill="#B24B39" d="M118.2,445.6c0-0.1,0-0.1,0-0.2c1.5,0,3,0,4.5,0c0.1,0,0.1,0.1,0.1,0.1c0,0-0.1,0-0.1,0
			C121.2,445.6,119.7,445.6,118.2,445.6z"/>
		<path fill="#FCE5DC" d="M143,347.9c0,0,0,0.1,0,0.2c-1.3,0-2.6,0.2-3.8-0.2C140.5,347.9,141.7,347.9,143,347.9z"/>
		<path fill="#E6C2B4" d="M158.8,430.8L158.8,430.8h-0.2c-0.7-0.9-0.7-1.8,0-2.9l0.1,0c0.1-0.1,0.1-0.1,0.2,0
			C158.8,428.9,158.8,429.9,158.8,430.8z"/>
		<path fill="#B55240" d="M82.7,445.4c0,0.1,0,0.1,0,0.2c-1,0-2,0-3,0c-0.1,0-0.1-0.1-0.1-0.1c0,0,0-0.1,0.1-0.1
			C80.7,445.4,81.7,445.4,82.7,445.4z"/>
		<path fill="#F29F8A" d="M130.5,348.1c0,0,0-0.1,0-0.2c0.9,0,1.8,0,2.6,0c0.1,0,0.1,0.1,0.1,0.1c0,0-0.1,0-0.1,0
			C132.3,348.1,131.4,348.1,130.5,348.1z"/>
		<path fill="#B65542" d="M122.6,445.6c0,0,0-0.1,0-0.2c0.9,0,1.8,0,2.6,0c0.1,0,0.1,0.1,0.1,0.1c0,0-0.1,0-0.1,0
			C124.4,445.6,123.5,445.6,122.6,445.6z"/>
		<path fill="#F29B85" d="M79.7,347.9c0,0,0,0.1,0,0.2c-0.9,0-1.8,0-2.6,0c-0.1,0-0.1-0.1-0.1-0.1c0,0,0.1,0,0.1,0
			C77.9,347.9,78.8,347.9,79.7,347.9z"/>
		<path fill="#D7755C" d="M55.7,422.4c0,0,0.1,0,0.2,0c0.2,0.2,0.1,0.5,0.1,0.8c0,0.6,0,1.2,0,1.8c0,0.1-0.1,0.1-0.2,0
			C55.7,424.1,55.7,423.2,55.7,422.4z"/>
		<path fill="#DB8168" d="M158.6,421.6c0.1,0,0.1,0,0.2,0c0,0.9,0,1.8,0,2.6c-0.1,0.1-0.1,0.1-0.2,0c0-0.6-0.1-1.2-0.1-1.8
			C158.3,422.1,158.3,421.8,158.6,421.6z"/>
		<path fill="#F4A995" d="M133.1,348.1c0,0,0-0.1,0-0.2c0.7,0,1.4,0,2,0c0.1,0,0.1,0.1,0.1,0.1c0,0-0.1,0-0.1,0
			C134.5,348.1,133.8,348.1,133.1,348.1z"/>
		<path fill="#F3A691" d="M77,347.9c0,0,0,0.1,0,0.2c-0.7,0-1.4,0-2,0c-0.1,0-0.1-0.1-0.1-0.1c0.1,0,0.1,0,0.1,0
			C75.7,347.9,76.4,347.9,77,347.9z"/>
		<path fill="#F8C9B9" d="M138.8,347.9c-0.6,0.4-1.2,0.1-1.8,0.2c-0.1,0-0.1-0.1-0.1-0.1c0-0.1,0.1-0.1,0.1-0.1
			C137.6,347.9,138.2,347.9,138.8,347.9z"/>
		<path fill="#F5B7A4" d="M137,347.9c0,0,0,0.1,0,0.2c-0.6,0-1.2,0-1.8,0c0,0,0-0.1,0-0.2C135.8,347.9,136.4,347.9,137,347.9z"/>
		<path fill="#BF6B57" d="M76.4,445.4c0.6,0,1.1,0,1.6,0c0.1,0,0.2,0.1,0,0.2c-0.5,0-1.1,0-1.6,0C76.4,445.5,76.3,445.5,76.4,445.4
			C76.4,445.4,76.4,445.4,76.4,445.4z"/>
		<path fill="#BA5F4B" d="M78.1,445.6c0,0,0-0.1,0-0.2c0.6,0,1.1,0,1.6,0c0,0,0,0.1,0,0.2C79.1,445.6,78.6,445.6,78.1,445.6z"/>
		<path fill="#B95E4A" d="M125.3,445.6c0,0,0-0.1,0-0.2c0.6,0,1.1,0,1.6,0c0.1,0.1,0.1,0.1,0,0.2
			C126.3,445.6,125.8,445.6,125.3,445.6z"/>
		<path fill="#C06F5A" d="M128.3,445.4c0.6,0,1.1,0,1.6,0c0.1,0,0.1,0.1,0.1,0.1c0,0-0.1,0-0.1,0c-0.6,0-1.1,0-1.6,0
			C128.2,445.5,128.2,445.4,128.3,445.4z"/>
		<path fill="#D97D65" d="M55.7,425c0,0,0.1,0,0.2,0c0,0.5,0,1.1,0,1.6c0,0.1-0.1,0.1-0.2,0C55.7,426.1,55.7,425.5,55.7,425z"/>
		<path fill="#C77D68" d="M129.9,445.6c0,0,0-0.1,0-0.2c0.6,0,1.1,0,1.6,0c0.1,0,0.1,0.1,0.1,0.1c0,0-0.1,0-0.1,0
			C131,445.6,130.4,445.6,129.9,445.6z"/>
		<path fill="#D0927E" d="M131.5,445.6c0,0,0-0.1,0-0.2c0.5,0,1-0.2,1.4,0.2C132.5,445.6,132,445.6,131.5,445.6z"/>
		<path fill="#BD6652" d="M128.3,445.4c0,0,0,0.1,0,0.2c-0.5,0-0.9,0-1.4,0c0-0.1,0-0.1,0-0.2C127.4,445.4,127.8,445.4,128.3,445.4z
			"/>
		<path fill="#FCE9E1" d="M71,348.1c0-0.1,0-0.1,0-0.2c0.5,0,0.9,0,1.4,0c0.1,0.1,0.1,0.1,0,0.2C71.9,348.1,71.5,348.1,71,348.1z"/>
		<path fill="#F5B4A1" d="M75,347.9c0,0,0,0.1,0,0.2c-0.5,0-1,0-1.4,0c-0.1,0-0.1-0.1-0.1-0.1c0,0,0,0,0.1,0
			C74.1,347.9,74.6,347.9,75,347.9z"/>
		<path fill="#E09881" d="M158.6,427c0-0.5,0-1,0-1.4c0.1-0.1,0.1-0.1,0.2,0c0,0.5,0,1,0,1.4C158.7,427.1,158.6,427.1,158.6,427z"/>
		<path fill="#DD8A72" d="M158.8,425.6c-0.1,0-0.1,0-0.2,0c0-0.5,0-1,0-1.4c0.1,0,0.1,0,0.2,0C158.8,424.6,158.8,425.1,158.8,425.6z
			"/>
		<path fill="#C67B66" d="M76.4,445.4c0,0,0,0.1,0,0.2c-0.4,0-0.8,0-1.2,0C75.6,445.2,76,445.4,76.4,445.4z"/>
		<path fill="#EA7F64" d="M158.8,363.4c-0.1,0-0.1,0-0.2,0c0.1-0.4-0.3-0.9,0.2-1.2C158.8,362.6,158.8,363,158.8,363.4z"/>
		<path fill="#F8C5B5" d="M73.6,347.9c0,0,0,0.1,0,0.2c-0.4,0-0.8,0-1.2,0c0,0,0-0.1,0-0.2C72.8,347.9,73.2,347.9,73.6,347.9z"/>
		<path fill="#DE9882" d="M55.8,427.8c0,0.4,0.3,0.9-0.2,1.2c0-0.4,0-0.8,0-1.2C55.7,427.7,55.8,427.7,55.8,427.8z"/>
		<path fill="#DC8970" d="M55.8,427.8c0,0-0.1,0-0.2,0c0-0.4,0-0.8,0-1.2c0,0,0.1,0,0.2,0C55.8,427,55.8,427.4,55.8,427.8z"/>
		<path fill="#E5AD99" d="M158.6,427c0.1,0,0.1,0,0.2,0c0,0.3,0,0.7,0,1c-0.1,0-0.1,0-0.2,0C158.6,427.7,158.6,427.3,158.6,427z"/>
		<path fill="#FCE5DC" d="M143.6,348.1c0.4,0,0.9-0.1,1.2,0.2C144.4,348.3,144,348.4,143.6,348.1z"/>
		<path fill="#FCE9E1" d="M69.8,348.3c0.3-0.3,0.7-0.2,1.1-0.2C70.5,348.4,70.2,348.3,69.8,348.3z"/>
		<path fill="#C42227" d="M158.5,428c0.1,0.9-0.2,1.9,0,2.8c-0.5,1.8-1.1,3.5-2,5.1c-0.2,0.1-0.4,0.2-0.7,0.2
			c-31.9,0-63.9-0.1-95.8-0.1c-0.7,0-1.3,0-2,0.4c-1-1.5-1.7-3.2-2-5c0-0.9,0-1.8,0-2.6c0-0.6,0.2-0.9,0.8-0.8c0.3,0,0.6,0,0.9,0
			c33.1,0,66.1,0,99.2,0C157.5,428,158,428,158.5,428z"/>
		<path fill="#E02C27" d="M55.9,374.1c0-0.9,0-1.8,0-2.6c0-2,0-4,0-6.1c34.2,0,68.4,0,102.7,0c0,2.8,0,5.7,0,8.5
			c-0.3,0.4-0.8,0.4-1.2,0.4c-6.2,0-12.4,0-18.6,0c-0.7,0-1.3-0.2-1.9-0.5c-0.5-0.2-0.9-0.3-1.4-0.2c-0.6,0-1.3-0.2-1.9-0.2
			c-0.2,0-0.4,0-0.6,0c-0.8-0.1-1.4-0.4-2.2-0.2c-0.2,0.1-0.4,0-0.6,0c-0.9-0.2-1.7-0.5-2.7-0.2c-0.1,0-0.3,0-0.4,0
			c-0.2,0-0.4,0-0.6,0c-0.9-0.3-1.9-0.3-2.8-0.1c-0.8,0-1.6,0-2.4,0c-0.3,0-0.6,0-0.9,0c-0.2,0-0.4-0.2-0.6-0.2
			c-1.5,0.3-3-0.2-4.5-0.1c-1.6,0.1-3.3,0.3-5-0.1c-0.9-0.2-1.8,0.2-2.7,0.2c-1.3,0-2.7-0.1-4-0.1c-1.8,0-3.6-0.2-5.3,0
			c-1.6,0.2-3.2,0.3-4.8,0.3c-2.7,0-5.4,0.2-8.2,0.4c-1.8,0.2-3.6,0.3-5.4,0.5c-0.2,0-0.3,0-0.5,0.1c-2.2,0.9-4.5,0.9-6.8,0.8
			c-5,0-10,0-14.9,0C56.9,374.5,56.3,374.6,55.9,374.1z"/>
		<path fill="#CA2227" d="M55.9,423.1c0-0.3,0-0.5-0.1-0.8c0-2.3,0-4.6,0-6.9l0.1,0c0.4-0.5,1-0.4,1.6-0.4c4.6,0,9.1,0,13.7,0
			c0.3,0,0.6,0,0.9,0c0.6,0,0.9-0.2,0.8-0.9c0-1-0.1-2.1-0.2-3.1c-0.1-1.5,0-3-0.3-4.5c0-0.1,0-0.2,0-0.3c0.1-0.5,0-1-0.1-1.5
			c-0.1-1.6,0-3.3,0.1-5c0.3-1.9,0.1-3.8,0.1-5.7c0-0.7,0-1.5,0-2.2c0.3-0.8,0.2-1.7,0.2-2.6c0-0.2,0-0.3,0-0.5
			c0.2-0.5,0.2-1.1,0.2-1.6c0-0.2,0-0.5,0.1-0.6c0.2-0.5,0-1.1,0.5-1.4c0.1,0,0.2,0,0.3,0.1c0.2,0.4,0.2,0.9,0.1,1.3
			c-0.3,1.2-0.1,2.5-0.2,3.8c-0.2,0.6-0.2,1.2-0.2,1.8c-0.2,0.5-0.2,1-0.2,1.5c0,3.6-0.1,7.1,0,10.7c0.1,3.4,0.1,6.8,1.2,10.1
			c0.3,0.9,0.8,1.7,0.7,2.7c-0.2,1,0.4,1.6,1,2.4c1.1,1.2,2.2,2.4,4,2.6c0,0.1,0,0.2-0.1,0.2c-0.3,0-0.7,0-1,0c-7.3,0-14.7,0-22.1,0
			C56.5,422.3,56.1,422.5,55.9,423.1z"/>
		<path fill="#CA2227" d="M158.6,421.6c0,0.3-0.1,0.5-0.1,0.8c-7.6,0-15.2,0-22.8,0c0-0.4,0.2-0.4,0.4-0.5c0.9-0.4,2-0.7,2.3-1.9
			c0-0.1,0.2-0.3,0.3-0.4c1.9-1.8,2.4-4.1,3-6.5c0.1-0.5,0.1-1,0.4-1.4c0.5,0.2,0.5,0.6,0.4,1c0,0.4-0.1,0.7-0.1,1.1
			c-0.1,1.3-0.1,1.3,1.3,1.3c4.4,0,8.8,0,13.1,0c0.5,0,1.1-0.1,1.5,0.4c0,0.5,0.1,0.9,0.1,1.4C158.6,418.5,158.6,420,158.6,421.6z"
			/>
		<path fill="#CC2227" d="M158.5,415.5c-5.1,0-10.3,0-15.5,0c-0.8,0-1.3,0-1-1.2c0.2-0.8,0.6-1.8,0.2-2.7c-0.1-1.1,0.2-2.1,0.2-3.2
			c0.1-0.2,0.2-0.3,0.4-0.2c0.6,0.5,1.3,0.6,2.1,0.6c4.1,0,8.1,0,12.1,0c0.5,0,1.1-0.1,1.5,0.4C158.5,411.3,158.5,413.4,158.5,415.5
			z"/>
		<path fill="#CF2327" d="M158.5,409.2c-4.7,0-9.4,0-14.1,0c-0.9,0-1.5-0.2-1.8-1c-0.1-0.1-0.1-0.2-0.1-0.3c0.1-1,0-2,0.1-3
			c-0.1-0.9,0.1-1.7-0.1-2.5c0-0.1,0-0.1,0-0.2c0.2-0.5,0.2-1.1,0-1.6c0-0.1,0-0.1,0-0.2c0.3-0.5-0.1-1,0.2-1.5
			c0.7,0.3,0.6,0.9,0.6,1.5c0.1,0.8,0.1,1.6,0.2,2.4c0.1,0.8,0.6,1,1.3,1c1.3,0,2.6,0,3.9,0c2.7,0,5.4,0,8.1,0c0.5,0,1,0,1.4,0.4
			C158.5,405.9,158.5,407.6,158.5,409.2z"/>
		<path fill="#BB2226" d="M79.5,420.5c-1.7-0.6-3-1.6-3.8-3.2c-0.1-0.1-0.1-0.3,0-0.4c0.4-0.1,0.6,0.1,0.8,0.4
			c0.6,0.7,1.2,1.4,2,1.8c1.7,1.3,3.7,1.5,5.7,1.7c3.3,0.4,6.7,0.3,10,0.5c3.4,0.2,6.7,0.1,10.1,0.1c1.2,0,2.4,0.3,3.6,0.2
			c4.1-0.2,8.2-0.1,12.4-0.2c3.1-0.1,6.3-0.2,9.4-0.4c2.4-0.2,4.8-0.2,7-1.6c0.4-0.2,0.9-0.4,1-0.9c0.6-1.1,1.6-2,2.1-3.2
			c0.4-1,0.7-2.1,1.1-3.2c0.5-1,0.5-2.1,0.6-3.1c0.1-0.9,0.3-1.9,0.2-2.8c0-0.3,0.1-0.6,0.5-0.6c-0.1,3.3-0.2,6.5-1.3,9.7
			c-1.3,3.7-4.6,6-8.4,6.2c-4.6,0.4-9.3,0.5-13.9,0.7c-5.6,0.1-11.2,0.2-16.8,0.1c-2.8,0-5.5-0.1-8.3-0.2c-2.9-0.1-5.9-0.2-8.8-0.4
			c-0.2,0-0.5-0.1-0.7-0.2c-0.5-0.3-1.1,0.1-1.6-0.2c-0.3,0-0.6,0.1-0.8-0.2c-0.3-0.2-0.7,0-1-0.2l0,0
			C80.1,420.8,79.7,420.8,79.5,420.5z"/>
		<path fill="#BD2327" d="M75.6,416.9c0,0.1,0,0.3,0,0.4c-0.1-0.1-0.3-0.1-0.4-0.2c-1.1-2.4-1.6-4.9-1.8-7.6
			c-0.5-5.4-0.3-10.8-0.3-16.3c0-0.4-0.1-0.8,0.1-1.2c0.3,0.1,0.3,0.4,0.4,0.6c0,1.6,0,3.2,0,4.8c0,4.5,0.4,9,0.9,13.5
			c0.1,0.9,0.4,1.7,0.6,2.5c-0.1,0.8,0.1,1.4,0.5,2.1C75.7,416.1,76,416.5,75.6,416.9z"/>
		<path fill="#C52D2C" d="M142.2,405.6c-0.4,1.2-0.2,2.4-0.4,3.6c-0.2,1.1-0.1,2.2-0.6,3.2c-0.4-0.4-0.3-0.8-0.2-1.2
			c0.2-1.7,0.4-3.4,0.6-5.1c0.2-2,0-4,0.2-6c0.3-3.9-0.1-7.9-0.2-11.8c-0.1-1.5-0.2-3-0.4-4.5c0-0.4-0.1-0.7-0.2-1.1
			c-0.1-0.4-0.2-0.9,0.2-1.2c0.7-0.1,0.8,0.5,0.8,0.9c0.2,1.4,0.4,2.9,0.5,4.3c0,0.6,0.1,1.2,0.2,1.8c0.1,1.4-0.1,2.8,0.2,4.2
			c0.1,0.4,0.1,0.9-0.3,1.2c0,2.6,0,5.1,0,7.7c-0.3,1.1,0.1,2.3-0.2,3.4C142.2,405.2,142.2,405.4,142.2,405.6z"/>
		<path fill="#CA2227" d="M142.4,393.9c-0.2-1.8-0.2-3.6-0.2-5.5c0.1-0.1,0.2,0,0.3,0.1c0.2,0.3,0.2,0.6,0.2,1c0,0.7-0.1,1.4,0.2,2
			c0,0.7,0.1,1.4-0.1,2.1c-0.1,0.1-0.1,0.2-0.2,0.3C142.5,393.9,142.5,393.9,142.4,393.9z"/>
		<path fill="#CC2227" d="M142.6,393.9c0-0.1,0-0.1,0-0.2c0.2,0,0.4,0.1,0.4,0.3c0,1.4,0.3,2.8-0.1,4.2c-0.1,0.1-0.2,0.1-0.4,0.1
			C142.6,396.9,142.6,395.4,142.6,393.9z"/>
		<path fill="#BB2226" d="M142.2,405c0.1-1.1-0.2-2.3,0.2-3.4C142.3,402.7,142.6,403.9,142.2,405z"/>
		<path fill="#CC2227" d="M142.8,405c-0.2,1,0.4,2-0.2,3c-0.1-0.9-0.1-1.8,0-2.6c0-0.1,0-0.3,0-0.4
			C142.7,404.9,142.8,404.9,142.8,405z"/>
		<path fill="#CA2227" d="M142.6,405.4c0,0.9,0,1.8,0,2.6c0,0.1,0,0.1,0,0.2c-0.1,0.1-0.1,0.1-0.2,0.2
			C142.5,407.4,142.2,406.4,142.6,405.4z"/>
		<path fill="#CA2227" d="M142.8,405c-0.1,0-0.1,0-0.2,0c0-0.9,0-1.8,0-2.6C143,403.2,142.7,404.1,142.8,405z"/>
		<path fill="#CA2227" d="M142.6,398.3c0.1,0,0.1,0,0.2,0c0.2,0.2,0.2,0.4,0,0.6c-0.1,0.5,0.1,1-0.2,1.4
			C142.6,399.7,142.6,399,142.6,398.3z"/>
		<path fill="#BD2327" d="M82.3,421.3c0.5,0.1,1.1-0.2,1.6,0.2C83.4,421.5,82.8,421.7,82.3,421.3z"/>
		<path fill="#CA2227" d="M142.6,400.6c0.3,0.6,0.3,1.1,0,1.6C142.6,401.6,142.6,401.1,142.6,400.6z"/>
		<path fill="#BD2327" d="M79.5,420.5c0.3,0.1,0.7,0.1,1,0.4C80.1,420.9,79.7,421,79.5,420.5z"/>
		<path fill="#BD2327" d="M80.5,420.9c0.3,0,0.7-0.1,1,0.2C81.1,421.1,80.8,421.2,80.5,420.9z"/>
		<path fill="#DC2A27" d="M135.2,373.3c0.4,0,0.8-0.1,1.2,0.1c1.9,0.7,4,0.5,6,0.5c5.4,0,10.8,0,16.2,0c0,1.4,0.1,2.7,0.1,4
			c0,1.6-0.1,3.1-0.1,4.7c-0.4,0.4-0.8,0.4-1.3,0.4c-4.5,0-9.1,0-13.6,0c-1.2,0-1.4-0.2-1.7-1.4c-1.1-3.3-2.8-6.1-6.2-7.5
			c-0.3-0.1-0.5-0.2-0.6-0.5C135.1,373.6,135.1,373.4,135.2,373.3z"/>
		<path fill="#D52727" d="M158.5,389.3c0,2.8,0,5.6,0,8.5c-0.3,0.4-0.8,0.4-1.3,0.4c-4.1,0-8.3,0-12.4,0c-1.3,0-1.4-0.2-1.6-1.5
			c-0.4-2.5-0.4-5.1-0.7-7.7c-0.1-0.5-0.2-0.9-0.3-1.4c-0.2-1.6-0.3-3.2-0.6-4.8c-0.1-0.8-0.3-1.5-1-2.1c-0.3-0.3-0.4-0.8-0.6-1.1
			c-0.2-0.5-0.4-0.9-0.4-1.4c0.4-0.6,0.8-0.6,1.1,0.1c0.4,1,0.9,2,1.2,3c0.7,2.1,1.1,4.3,1.4,6.5c0.1,0.9,0.5,1.1,1.3,1.1
			c4.1,0,8.2,0,12.3,0C157.6,388.9,158.1,388.8,158.5,389.3z"/>
		<path fill="#D82927" d="M158.5,389.3c-4.7,0-9.4,0-14.1,0c-0.8,0-1.2-0.1-1.4-1.1c-0.3-2.3-0.6-4.7-1.2-6.9
			c-0.3-0.9-0.7-1.8-1.1-2.7c-0.1-0.2-0.3-0.5-0.6-0.5c-0.1,0-0.1,0.2-0.1,0.4c-0.8,0.1-0.8-0.6-1.1-1c-0.1-0.4-0.4-0.6-0.7-0.8
			c-2.1-2.2-4.9-2.6-7.8-2.8c-0.5,0-0.9,0-1.4-0.1c-0.4-0.1-0.9-0.2-1.3-0.1c-0.9,0-1.9,0-2.9-0.1c-0.6-0.1-1.2-0.4-1.9-0.1
			c-0.9,0-1.7,0.1-2.5-0.2c-0.2-0.1-0.4-0.3-0.3-0.6c0.3,0,0.6,0,0.8,0c0.9,0.2,1.8,0.1,2.7,0.1c0.8-0.1,1.7,0,2.6,0.1
			c0.2,0,0.4,0,0.6,0c0.4,0.2,0.9-0.1,1.3,0c0.6,0.1,1.2-0.1,1.7,0.2c0.2,0,0.4,0,0.6,0c0.8,0,1.5,0.1,2.2,0.2c0.2,0,0.4,0,0.6,0
			c0.6,0.1,1.2,0.1,1.8,0.4c1.1,0.6,2.2,1,3.2,1.8c1.4,1.2,2.6,2.5,3.1,4.3c0.3,0.8,0.8,1.5,0.9,2.4c0.1,0.6,0.6,0.5,1,0.5
			c4.1,0,8.1,0,12.2,0c1,0,1.9,0,2.9,0C158.5,384.8,158.5,387.1,158.5,389.3z"/>
		<path fill="#D12527" d="M142.4,387.5c0.4,0.8,0.3,1.7,0.3,2.5c0.1,1.7,0.4,3.4,0.3,5.1c-0.1,0.8,0.6,1.5,0.5,2.4
			c-0.1,0.5,0.6,0.4,1,0.4c4.6,0,9.3,0,14,0c0,0.8,0.1,1.6,0.1,2.4c0,1.4-0.1,2.7-0.1,4c-4.6,0-9.3,0-13.9,0c-0.8,0-1.1-0.1-1.3-1.1
			c-0.3-1.4,0.1-2.9-0.6-4.2c0-0.2,0-0.4,0-0.6c0-1.2,0-2.4,0-3.6c0-0.4,0.1-0.8-0.2-1c0-0.8,0-1.5,0-2.2c-0.3-0.6,0.1-1.4-0.2-2
			c0-0.3,0-0.7,0-1C142.2,388.1,142.1,387.8,142.4,387.5z"/>
		<path fill="#CF2327" d="M72.6,400c0,1.6,0,3.2,0,4.9c0.3,0.5-0.1,1,0.2,1.4c0,0.1,0,0.1,0,0.2c-0.3,1.1,0.1,2.2-0.3,3.4
			c-0.3,0.8-0.7,1.1-1.4,1.1c-4.8,0-9.7,0-14.5,0c-0.2,0-0.5-0.1-0.6-0.2c0-2.7,0-5.4,0-8.1c0.4-0.5,0.9-0.4,1.5-0.4
			c4.1,0,8.1,0,12.2,0c0.4,0,0.8,0,1.2-0.1c0.4-0.1,0.8-0.3,0.8-0.8c0-1,0.5-1.9,0.5-2.9c0-0.4,0.1-0.8,0.6-0.9
			C72.8,398.3,72.8,399.1,72.6,400z"/>
		<path fill="#D22627" d="M72.6,397.5c-0.2,1.2-0.5,2.5-0.6,3.7c-0.1,0.9-0.4,1.2-1.2,1.3c-0.3,0-0.7,0-1,0c-4.7,0-9.3,0-14,0
			c0-0.5,0-1.1,0-1.6c0-1.6,0-3.2,0-4.8c0.4-0.5,1-0.4,1.5-0.4c4.2,0,8.5,0,12.8,0c1.3,0,1.2,0,1.5-1.3c0.3-1.3,0.4-2.6,0.5-3.9
			c0-0.4,0.1-0.8,0.6-0.9c0.1,0.8,0.1,1.5,0,2.2c0,0.8,0,1.5,0,2.2C72.5,395.2,72.9,396.4,72.6,397.5z"/>
		<path fill="#CC2227" d="M55.9,410.7c0.5-0.2,1.1-0.2,1.6-0.2c4.5,0,8.9,0,13.4,0c0.7,0,0.9-0.2,1.2-0.9c0.6-1,0.1-2.2,0.7-3.1
			c0,1.4,0.2,2.9,0.3,4.3c0.1,1.4,0.2,2.7,0.3,4.1c0,0.8-0.5,0.7-1,0.7c-4.6,0-9.2,0-13.9,0c-0.9,0-1.8,0-2.6,0
			C55.9,413.9,55.9,412.3,55.9,410.7z"/>
		<path fill="#DC2A27" d="M120.2,372.5c0.1,0.1,0.1,0.2,0.2,0.4c-0.7,0.8-1.6,0.4-2.4,0.4c-1.1-0.3-2.2-0.4-3.3-0.1
			c-4.7,0-9.3,0-13.9,0c-1.1-0.2-2.1-0.2-3.2,0.1c-1.7,0.1-3.4,0-5.1,0.1c-0.7-0.2-1.3-0.1-1.9,0.1c-2.7,0.1-5.3,0.4-8,0.4
			c-1.3-0.6-2.5,0.1-3.6,0.7c-1.4,0.7-2.7,1.5-3.4,2.9c-1,1.3-1.6,2.8-2.1,4.3c-0.3,1-0.6,1.2-1.8,1.2c-2.9,0-5.8,0-8.7,0
			c-1.9,0-3.8,0-5.6,0c-0.5,0-1,0-1.4-0.4c0-1,0-2,0-3c0-1.8,0-3.6,0-5.5c6.4,0,12.8,0,19.2,0c1.1,0,2.2-0.2,3.2-0.5
			c1.1-0.3,2.1-0.4,3.3-0.5c1.7-0.1,3.5-0.4,5.2-0.5c1.7-0.1,3.3-0.2,5-0.2c2.1,0.1,4.1,0.1,6.2-0.2c1-0.1,2,0,3,0
			c2.3,0,4.7,0.2,7,0.1c2.4-0.2,4.7,0.2,7.1,0C116.7,372.1,118.5,372.3,120.2,372.5z"/>
		<path fill="#D82927" d="M55.9,382.6c5.3,0,10.5,0,15.8,0c0.9,0,1.2-0.3,1.5-1.2c0.5-1.5,1-3.1,2.2-4.3c0,0,0.1,0.1,0.1,0.1
			c0.1,0.3,0.1,0.5-0.1,0.8c-0.3,0.3-0.5,0.7-0.6,1.1c-0.4,0.8-0.7,1.5-0.8,2.4c-0.1,0.1-0.1,0.2-0.2,0.3c-0.8,2-0.7,4.2-1.2,6.2
			c-0.3,1.3-0.6,1.7-1.9,1.7c-4.5,0-9.1,0-13.6,0c-0.5,0-1,0-1.3-0.4c0-0.3,0-0.7-0.1-1C55.9,386.4,55.9,384.5,55.9,382.6z"/>
		<path fill="#D52727" d="M55.9,389.3c5,0,10,0,15,0c1.1,0,1.3-0.5,1.5-1.4c0.4-1.9,0.4-3.8,1-5.6c0.1-0.3,0.2-0.6,0.4-0.9
			c0.2,0.1,0.2,0.4,0.2,0.6c-0.2,0.6-0.4,1.3-0.4,2c-0.2,0.4-0.1,0.8-0.3,1.2c-0.1,0.2-0.1,0.4-0.1,0.6c-0.1,0.4-0.2,0.9-0.2,1.3
			c0,0.1,0,0.2-0.1,0.3c0,0.6,0,1.2-0.1,1.8c0,0.1,0,0.3-0.1,0.4c-0.4,0.7-0.3,1.5-0.3,2.2c0,1.2-0.8,2.4-0.4,3.6
			c0.1,0.4-0.2,0.5-0.5,0.6c-0.3,0-0.7,0-1,0c-4.9,0-9.8,0-14.7,0c0-0.5,0-1,0-1.4C55.9,392.9,55.9,391.1,55.9,389.3z"/>
		<path fill="#DC2A27" d="M126.3,372.7c-0.9,0-1.8,0-2.6,0c-0.1-0.1-0.1-0.1,0-0.2C124.6,372.2,125.4,372.4,126.3,372.7z"/>
		<path fill="#DC2A27" d="M129.9,372.9c-0.6,0-1.2,0-1.8,0c-0.2-0.2-0.6,0-0.8-0.2C128.2,372.4,129.1,372.5,129.9,372.9z"/>
		<path fill="#DC2A27" d="M132.7,373.1c-0.8-0.1-1.5,0.1-2.2-0.2C131.3,372.5,132,372.9,132.7,373.1z"/>
		<path fill="#DC2A27" d="M123.7,372.5c0,0.1,0,0.1,0,0.2c-0.9-0.1-1.8,0.2-2.6-0.2C121.9,372.5,122.8,372.5,123.7,372.5z"/>
		<path fill="#DC2A27" d="M135.2,373.5c-0.6,0-1.2-0.1-1.8-0.4c0.6-0.1,1.2,0.1,1.8,0.2C135.2,373.4,135.2,373.5,135.2,373.5z"/>
		<path fill="#DC2A27" d="M127.3,372.7c0.3,0,0.6-0.1,0.8,0.2c-0.4,0-0.9,0.1-1.2-0.2C127,372.7,127.1,372.7,127.3,372.7z"/>
		<path fill="#EFEEEE" d="M141.8,406.2c0,2.1-0.3,4.2-0.6,6.3c-0.4,1.1-0.7,2.2-1.2,3.3c-0.5,1.1-1.2,1.9-2.1,2.8
			c-1.3,1.5-3,2-4.8,2.2c-2.3,0.4-4.7,0.4-7,0.5c-6.2,0.3-12.4,0.4-18.5,0.4c-5.3,0-10.6-0.1-15.9-0.3c-3.7-0.2-7.3-0.2-10.9-1
			c-0.8-0.2-1.6-0.6-2.3-1c-2.1-1.3-3.3-3.2-3.8-5.5c-1.5-6.6-1.3-13.3-1.3-20c0-0.4,0-0.7,0-1.1c0.2-0.8,0-1.5,0.1-2.3
			c0.1-1.8,0.1-3.5,0.2-5.3c-0.2-1.1,0.1-2.1,0.3-3.1c0.3-1.5,0.6-2.9,1.5-4.2c0.1-0.1,0.2-0.1,0.3,0c0.1,0.1,0.2,0.3,0.2,0.4
			c-0.3,1.6-1,3.1-1.2,4.7c0,0.2-0.1,0.4-0.1,0.6c0,1.7-0.2,3.4-0.4,5.1c-0.2,1.9-0.1,3.8-0.2,5.6c0,1.9,0.1,3.8,0,5.8
			c0.2,1.6-0.1,3.2,0.2,4.8c0.1,0.8,0.5,1,1.2,1c2,0,4.1,0,6.1,0c5.5,0,11,0,16.5,0c0.7,0,1.3,0,2-0.1c0.3,0,0.6,0.1,0.9,0
			c0.2,0,0.4-0.1,0.5-0.2c0.5-0.3,1-0.7,1.7-0.2c0.4,0.5,1,0.5,1.6,0.5c3.4,0,6.8,0,10.2,0c8.7,0,17.4,0,26.1,0
			C141.3,406,141.6,406,141.8,406.2z"/>
		<path fill="#CC2227" d="M74.1,382c-0.1,1.1-0.1,2.2-0.5,3.2c0,0-0.1,0-0.2,0c0-0.1-0.1-0.1-0.1-0.1c0-0.4-0.1-0.7,0.1-1.1
			c0-0.7,0-1.4,0.4-2C73.9,381.9,74,381.9,74.1,382z"/>
		<path fill="#CC2227" d="M72.6,397.5c0.1-1.1-0.2-2.3,0.2-3.4c0,1.6,0,3.2,0,4.8c0,0.4,0.1,0.8-0.2,1
			C72.6,399.2,72.6,398.3,72.6,397.5z"/>
		<path fill="#CC2227" d="M72.8,389.7c0-0.1,0-0.3,0-0.4c0.1-0.1,0.1-0.1,0.2,0c-0.1,0.9,0.2,1.8-0.2,2.6
			C72.8,391.2,72.8,390.4,72.8,389.7z"/>
		<path fill="#D22627" d="M73.4,390.5c0.1,0.8,0,1.5-0.1,2.3c0-0.2-0.1-0.5-0.1-0.7C73.3,391.6,73.1,391,73.4,390.5z"/>
		<path fill="#D22627" d="M73,389.3c-0.1,0-0.1,0-0.2,0c0.1-0.7-0.2-1.4,0.2-2c0.2,0.5,0.2,1.1,0,1.6C73,389,73,389.1,73,389.3z"/>
		<path fill="#CC2227" d="M73,388.9c0-0.6,0-1.1,0-1.6c0.1-0.1,0.1-0.1,0.2,0C73.1,387.8,73.4,388.4,73,388.9z"/>
		<path fill="#D22627" d="M73.2,387.3c-0.1,0-0.1,0-0.2,0c0.1-0.5-0.1-1,0.2-1.4c0.2,0.3,0.2,0.5,0,0.8
			C73.2,386.8,73.2,387.1,73.2,387.3z"/>
		<path fill="#CC2227" d="M73.2,386.6c0-0.3,0-0.6,0-0.8c0-0.2,0-0.4,0-0.6c0.1-0.1,0.1-0.1,0.2,0l0,0
			C73.4,385.7,73.6,386.2,73.2,386.6z"/>
		<path fill="#CC2227" d="M72.8,406.2c-0.3-0.4-0.1-0.9-0.2-1.4C73,405.2,72.8,405.7,72.8,406.2z"/>
		<path fill="#AA2124" d="M78.3,419.1c2,1.3,4.3,1.5,6.5,1.6c12.9,0.8,25.8,0.8,38.7,0.4c2.6-0.1,5.2-0.2,7.8-0.4
			c2.4-0.1,4.6-0.7,6.6-2.2c0.1,0.6-0.4,0.8-0.7,0.9c-1.6,1-3.3,1.6-5.2,1.7c-3.4,0.2-6.8,0.3-10.2,0.5c-3.2,0.1-6.5,0-9.7,0.2
			c-1.5,0.1-2.9,0.3-4.4,0.1c-4-0.3-8.1,0-12.2-0.2c-3.2-0.2-6.5-0.2-9.8-0.4c-1.8-0.1-3.7-0.3-5.5-0.8c-0.9-0.2-1.7-0.6-2.3-1.3
			C78.1,419,78.2,419,78.3,419.1z"/>
		<path fill="#B32728" d="M78.3,419.1c-0.1,0-0.2,0-0.3,0c-1.2-0.3-1.6-1.5-2.4-2.2c-0.2-1-1.1-1.9-1-3
			C75.4,416,76.4,417.8,78.3,419.1z"/>
		<path fill="#F3F3F3" d="M73.6,400.2c0-5.6-0.2-11.2,0.6-16.8c0.3-0.3,0.7-0.2,1.1-0.2c21.1,0,42.3,0,63.4,0c0.9,0,1.8,0,2.6-0.7
			c0.5,2,0.5,4.1,0.7,6.2c0.2,3.8,0.3,7.6,0.1,11.5c-0.3,0.4-0.8,0.4-1.3,0.4c-8.7,0-17.4,0-26.1,0c-0.5,0-1,0-1.3-0.4
			c-0.3-0.6,0.1-0.9,0.5-1.1c0.8-0.6,1.8-1,2.8-1.5c0.2-0.1,0.5-0.2,0.7-0.4c0.2-0.1,0.3-0.2,0.4-0.3c0.2-0.4-0.2-0.4-0.4-0.5
			c-3.2-1.8-6.4-3.4-9.6-5c-1.6-0.8-3.1-1.7-4.8-2.4c-0.5-0.3-1-0.5-1.4-0.7c-0.4-0.3-0.7-0.2-0.8,0.3c-0.1,0.4,0,0.7,0,1.1
			c0,3.2,0,6.4,0,9.5c0,0.5,0.1,1-0.3,1.3c-0.4,0.3-0.9,0.2-1.4,0.2c-8,0-15.9,0-23.9,0C74.6,400.6,74,400.6,73.6,400.2z"/>
		<path fill="#F5F6F6" d="M141.2,382.5c0,0.8-0.4,1.1-1.1,1.1c-0.3,0-0.6,0-0.8,0c-21.1,0-42.2,0-63.3,0c-0.6,0-1.2,0-1.8-0.2
			c0.2-1.8,0.8-3.4,1.4-5c0.1-1.4,1.3-2.1,2-3.1c1.3-1.1,2.8-1.8,4.6-1.8c2.8-0.1,5.5-0.3,8.3-0.5c0.6-0.1,1.2,0.1,1.9-0.1
			c1.7,0,3.4,0,5.2-0.1c1-0.1,2.1,0.1,3.1-0.1c2.8,0,5.5,0,8.2,0c1.9,0,3.8,0,5.7,0c1.1,0.2,2.2,0,3.3,0.1c0.8,0,1.6,0,2.4,0
			c0.9,0.1,1.7,0.1,2.6,0c0.6,0.2,1.2,0,1.9,0.1c1,0,2,0,3,0.1c0.4,0.2,0.8,0,1.2,0.1c1.7,0.2,3.4,0.1,5.1,0.6
			c1.7,0.4,3.2,1.1,4.4,2.6c0.2,0.3,0.3,0.6,0.6,0.8c0.3,0.4,0.4,0.9,0.8,1.2c0,0.5,0.4,0.8,0.4,1.2c0.1,0.4,0.2,0.9,0.6,1.2
			c0.2,0.2,0.2,0.5,0.1,0.8C141,381.9,141,382.3,141.2,382.5z"/>
		<path fill="#F1F0F0" d="M113.4,399.7c0.2,0.6,0.8,0.4,1.2,0.4c9.2,0,18.3,0,27.5,0c0.1,2,0,4-0.2,6c-0.9,0.2-1.8,0.2-2.8,0.2
			c-11.6,0-23.2,0-34.9,0c-0.7,0-1.4,0.1-1.2-1c0-0.4,0.4-0.6,0.7-0.8c1.9-1.3,4-2.2,6.1-3.4c0.9-0.5,1.8-0.9,2.6-1.4
			C112.6,399.7,112.9,399.4,113.4,399.7z"/>
		<path fill="#CC2227" d="M141,381.6c0-0.3-0.1-0.6-0.3-0.8c-0.1-0.1-0.1-0.2,0.1-0.2c0.6-0.2,0.5,0.3,0.6,0.6
			c0.5,1.4,0.6,2.9,0.8,4.4c0.1,0.6,0.1,1.2,0.2,1.9c0,0.3,0,0.7,0,1c-0.1,0-0.1,0-0.2,0c-0.3-1.2-0.1-2.5-0.4-3.8
			c-0.2-0.8-0.3-1.7-0.4-2.6C141.4,381.9,141.3,381.7,141,381.6z"/>
		<path fill="#CC2227" d="M142.4,389.5c0.4,0.7,0.1,1.4,0.2,2C142.2,390.9,142.5,390.1,142.4,389.5z"/>
		<path fill="#F3F3F3" d="M140.8,380.6c0,0.1-0.1,0.1-0.1,0.2c-0.3-0.4-0.6-0.7-0.4-1.2C140.5,379.9,140.7,380.3,140.8,380.6z"/>
		<path fill="#E02C27" d="M124.8,373.1c-0.6,0-1.2,0.1-1.9-0.1C123.6,373,124.2,372.8,124.8,373.1z"/>
		<path fill="#F3F3F3" d="M139.2,377.2c-0.5,0-0.6-0.4-0.6-0.8C138.9,376.5,139.1,376.8,139.2,377.2z"/>
		<path fill="#DC2A27" d="M129.1,373.3c-0.4,0-0.9,0-1.2-0.1C128.3,373.2,128.7,373,129.1,373.3z"/>
		<path fill="#D82927" d="M82.3,373.5c-1.6,0.4-3.2,0.7-4.5,2c-0.4,0.4-0.8,0.8-1.2,1.2c-0.4,0.1-0.6,0.7-1.1,0.5l0,0
			c0.5-1.3,1.8-1.8,2.8-2.5c0.9-0.7,2-1,3.1-1.2C81.7,373.3,82,373.3,82.3,373.5z"/>
		<path fill="#E02C27" d="M118,372.9c-1.1,0-2.2,0.1-3.3-0.1C115.8,372.8,116.9,372.6,118,372.9z"/>
		<path fill="#E02C27" d="M100.7,372.7c-1,0.2-2.1,0.1-3.1,0.1C98.7,372.6,99.7,372.8,100.7,372.7z"/>
		<path fill="#E02C27" d="M92.5,373c-0.6,0.2-1.2,0.2-1.9,0.1C91.2,372.8,91.8,373,92.5,373z"/>
		<path fill="#D22627" d="M74.1,382c-0.1,0-0.1,0-0.2,0c0-0.2,0-0.4,0-0.6l0,0c0.2-0.9,0.5-1.6,0.8-2.4c0.1-0.4,0.2-0.8,0.6-1
			c0.1-0.1,0.2-0.1,0.2,0C75,379.3,74.5,380.7,74.1,382z"/>
		<path fill="#D52727" d="M74.6,379c-0.1,0.9-0.5,1.6-0.8,2.4C73.8,380.5,74.1,379.7,74.6,379z"/>
		<path fill="#D52727" d="M75.5,378c-0.1,0-0.2,0-0.2,0c0.1-0.3,0.1-0.5,0.2-0.8c0.4-0.1,0.5-0.8,1-0.6c-0.1,0.6-0.5,1-0.8,1.4H75.5
			L75.5,378z"/>
		<path fill="#D22627" d="M73.4,385.2c-0.1,0-0.1,0-0.2,0c0-0.4-0.1-0.9,0.2-1.2C73.4,384.4,73.4,384.8,73.4,385.2z"/>
		<path fill="#F1F0F0" d="M73.6,400.2c8.9,0,17.9,0,26.8,0c0.5,2,0.5,4,0,6c-0.9,0.2-1.8,0.2-2.8,0.2c-7.5,0-15.1,0-22.6,0
			c-0.9,0-1.2-0.2-1.2-1.1C73.6,403.6,73.7,401.9,73.6,400.2z"/>
		<path fill="#CD2527" d="M109.7,401.5c-2,1.1-4,2.2-6,3.4c-0.3,0.1-0.5,0.4-0.8,0.5c-0.5,0.2-0.9,0.4-1.4,0.6
			c-0.5-0.1-0.7-0.4-0.7-0.9c0-0.2,0-0.3,0-0.5c0.1-5-0.2-10-0.1-15c0-1.5,0.4-1.7,1.7-1.1c0.6,0.3,1.2,0.6,1.8,0.9
			c0.7,0.3,1.4,0.5,1.8,1.1c0,0.1,0,0.2-0.1,0.3c-0.2,0.2-0.4,0.2-0.6,0.2c-1.1-0.3-2-0.9-3-1.4c-0.5-0.3-0.7-0.2-0.7,0.4
			c0,0.6,0,1.2,0,1.8c-0.2,2,0.2,4,0.1,6c-0.2,1.9,0.1,3.8,0.1,5.6c0,0.6,0.4,0.8,1,0.7c1.3-0.3,2.4-1,3.5-1.7
			c0.8-0.5,1.6-0.8,2.4-1.2C109,401.2,109.5,400.9,109.7,401.5z"/>
		<path fill="#C32427" d="M104.3,389.9c-0.9-0.2-1.5-0.8-2.3-1.2c-0.8-0.3-1.1-0.2-1.1,0.7c-0.1,5.2,0.3,10.4,0.2,15.6
			c0,0.4,0.2,0.7,0.4,1c-0.1,0.1-0.2,0.2-0.4,0.2c-0.2,0.1-0.4,0.1-0.5-0.1c-0.1-0.1,0-0.3,0-0.5c0-5.6,0-11.2,0-16.9
			c0-0.8,0.3-1,1.1-0.8c0.5,0.3,1,0.5,1.4,0.8C103.5,389.1,104.3,389.1,104.3,389.9z"/>
		<path fill="#B52D2A" d="M101.9,388.3c-1.1-0.3-1.2-0.3-1.2,0.8c0,5.4,0,10.8,0,16.2c0,0.4-0.2,0.8,0.4,1c-0.2,0.2-0.4,0.4-0.6,0
			c0-2,0-4,0-6c0-3.9,0-7.8,0-11.7c0-0.4,0-0.7,0-1.2c0.6,0.1,1,0.4,1.4,0.6C102,388.1,102,388.2,101.9,388.3z"/>
		<path fill="#F3F3F3" d="M75.6,378c0.1-0.6,0.5-1,0.8-1.4c0.5-0.3,0.8-0.9,1.4-1.1c-0.7,1-1.6,1.8-2.2,2.9
			C75.7,378.2,75.6,378.1,75.6,378z"/>
		<path fill="#D02528" d="M109.7,401.5c-0.5-0.1-0.9,0.1-1.3,0.2c-1.7,0.8-3.2,1.9-4.9,2.6c-1.9,0.7-2.3,0.4-2.2-1.6
			c0-1.6,0-3.1,0-4.7c0.6,0,0.7,0.4,0.7,0.9c0,0.9,0.5,1.2,1.4,1.1c2.2-0.1,4.5,0.2,6.7-0.3c0.6-0.2,1.1-0.4,1.6-0.7
			c1.2-0.8,2.6-1.4,4-1.9c0.5-0.1,0.9,0,1.1,0.5c-1.1,0.6-2.3,1.3-3.4,2C112.1,400.3,110.9,400.9,109.7,401.5z"/>
		<path fill="#8D1D1D" d="M104.3,389.9c-0.4-0.3-0.8-0.7-1.2-1c-0.1-0.1-0.1-0.2,0-0.2c2.1,1,4.2,2.1,6.2,3.2
			c3.1,1.6,6.2,3.2,9.3,4.8c-0.1,0.4-0.5,0.5-0.8,0.6c-1.3-0.5-2.5-1.2-3.8-1.9c-2.4-1.4-5-2.5-7.3-3.9c-0.3-0.2-0.6-0.4-0.8-0.7
			C105.4,390.4,104.8,390.1,104.3,389.9z"/>
		<path fill="#991D1F" d="M105.9,390.7c1.5,0.4,2.6,1.4,3.9,2c2.5,1.2,4.9,2.6,7.3,3.9c0.3,0.1,0.5,0.3,0.7,0.6
			c-0.1,0.2-0.2,0.2-0.3,0.2c-0.7,0.6-1-0.1-1.5-0.4c-1.8-1.1-3.5-2.2-5.5-2.9c-0.4-0.1-0.7-0.4-1.1-0.5c-0.3-0.1-0.5-0.3-0.7-0.5
			c-0.7-0.7-1.6-1.1-2.4-1.6c-0.2-0.1-0.5-0.2-0.4-0.6C105.9,390.8,105.9,390.8,105.9,390.7z"/>
		<path fill="#9E1F21" d="M110.5,393.7c1.5,0.6,3,1.2,4.3,2.2c0.7,0.5,1.7,0.5,2,1.5c0,0,0.4,0,0.7,0c-0.2,0.2-0.4,0.3-0.7,0.4
			c-0.3-0.1-0.7-0.3-1-0.5c-0.7,0.1-1.1-0.4-1.6-0.7c-0.5-0.3-1.1-0.7-1.6-1c-0.4-0.1-0.8-0.4-1.1-0.7
			C111.3,394.4,110.4,394.5,110.5,393.7z"/>
		<path fill="#9B1F20" d="M103.1,388.6c0,0.1,0,0.2,0,0.2c-0.4-0.2-0.8-0.4-1.2-0.6c0-0.1,0-0.2,0-0.3
			C102.3,388.1,102.7,388.3,103.1,388.6z"/>
		<path fill="#D32627" d="M112.8,395.3c1.1,0.6,2.1,1.2,3,2c-0.1,0.4-0.3,0.5-0.6,0.6c-1.4,0.4-2.6,1.2-3.8,1.9
			c-0.9,0.6-2,0.7-3,0.7c-1.8,0.1-3.7,0-5.5,0c-1,0-1.4-0.5-1.2-1.5c0-0.4,0-0.7-0.3-1c0-2.1,0-4.3,0-6.5c0.6,0.1,0.6,0.5,0.6,0.9
			c0,0.8,0.3,1.4,0.3,2.2c0,0.7,0.6,0.7,1.1,0.8c2.2,0,4.5,0,6.8,0C110.9,395.5,111.8,395.7,112.8,395.3z"/>
		<path fill="#D52727" d="M112.8,395.3c-0.2,0.6-0.7,0.6-1.1,0.6c-2.9,0-5.9,0-8.8,0c-0.8,0-1.1-0.4-1.2-1.2c0-1-0.3-2-0.4-3
			c0-0.7,0-1.4,0-2.2c0-0.6,0.3-0.8,0.8-0.4c1,0.8,2.2,1.1,3.3,1.8c1.3,0.6,2.4,1.5,3.7,2c0.2,0.1,0.4,0.3,0.6,0.4
			c0.5,0.8,1.4,1.1,2.2,1.4C112,395,112.3,395.2,112.8,395.3z"/>
		<path fill="#D32627" d="M108.9,392.9c-1.5-0.1-2.6-1.1-3.6-2c0.2,0,0.4,0,0.6,0C106.9,391.5,108,392,108.9,392.9z"/>
		<path fill="#D32627" d="M111.7,394.7c-0.9-0.2-2-0.1-2.2-1.4c0.3,0.1,0.7,0.3,1,0.4C110.8,394.2,111.5,394.2,111.7,394.7z"/>
	</g>
</g>
</svg>
